<svg xmlns="http://www.w3.org/2000/svg" xmlns:xlink="http://www.w3.org/1999/xlink" width="186" height="56.824" viewBox="0 0 186 56.824">
  <defs>
    <clipPath id="clip-path">
      <rect id="Retângulo_4" data-name="Retângulo 4" width="186" height="56.824" fill="#fff"/>
    </clipPath>
  </defs>
  <g id="logo_cobra_informatica_branco" clip-path="url(#clip-path)">
    <path id="Caminho_1" data-name="Caminho 1" d="M662.182,124.127c-.89,3.366-3.56,6.5-9.577,6.5-6.851,0-10.156-4.739-10.156-9.976s3.642-10.014,10.406-10.014c5.873,0,8.8,3.266,9.362,6.472h-4.711c-.394-1.1-1.43-2.862-4.7-2.862-3.585,0-5.449,2.731-5.449,6.23,0,3.531,1.7,6.565,5.476,6.565,2.727,0,3.926-1.06,4.672-2.911Z" transform="translate(-566.053 -97.478)" fill="#fff"/>
    <path id="Caminho_2" data-name="Caminho 2" d="M849.755,120.563c0,5.314-3.544,10.061-10.518,10.061-6.5,0-10.216-4.444-10.216-10.041,0-5.274,3.933-9.949,10.432-9.949,6.695,0,10.3,4.7,10.3,9.928m-15.828-.037c0,3.626,1.838,6.465,5.574,6.465,3.861,0,5.349-3.257,5.349-6.374,0-3.4-1.655-6.35-5.536-6.35-3.732,0-5.387,3.027-5.387,6.258" transform="translate(-730.439 -97.479)" fill="#fff"/>
    <path id="Caminho_3" data-name="Caminho 3" d="M1035.568,114.068h10.612c4.588,0,6.584,2.232,6.584,4.938a4.219,4.219,0,0,1-2.863,4.09,4.624,4.624,0,0,1,3.563,4.438c0,3.6-2.759,5.707-7.457,5.707h-10.438Zm9.639,7.506c2.083,0,2.746-.825,2.746-1.986,0-1.446-1.1-2.034-2.706-2.034h-5.1v4.019Zm-5.058,8.205h5.255c1.792,0,3.154-.526,3.154-2.423,0-1.531-1.041-2.32-3.065-2.32h-5.344Z" transform="translate(-912.424 -100.504)" fill="#fff"/>
    <path id="Caminho_4" data-name="Caminho 4" d="M1221.682,125.853v7.389h-4.6V114.069h10.441c4.421,0,6.952,2.181,6.952,5.477a4.491,4.491,0,0,1-3.336,4.535c.785.309,2.843,1.063,2.843,4.507v.957a15.636,15.636,0,0,0,.242,3.7h-4.776a12.225,12.225,0,0,1-.359-4.013V128.6c0-1.938-.711-2.747-3.505-2.747Zm0-3.49h4.8c2.259,0,3.238-.814,3.238-2.431,0-1.515-1-2.374-3.2-2.374h-4.835Z" transform="translate(-1072.35 -100.505)" fill="#fff"/>
    <path id="Caminho_5" data-name="Caminho 5" d="M1387.234,128.891l-1.673,4.351h-4.786l7.722-19.173h5.967l8.118,19.173h-5.032l-1.782-4.351Zm7.233-3.729c-1.785-4.394-2.653-6.634-3.113-8.1h-.027c-.429,1.434-1.447,4.35-2.889,8.1Z" transform="translate(-1216.581 -100.505)" fill="#fff"/>
    <rect id="Retângulo_2" data-name="Retângulo 2" width="0.945" height="6.814" transform="translate(78.069 37.868)" fill="#fff"/>
    <path id="Caminho_6" data-name="Caminho 6" d="M718.834,325.266v-6.814h1.23c.891,1.581,2.781,4.851,3.126,5.592h.013c-.063-.844-.059-1.939-.059-3.053v-2.539h.884v6.814h-1.158c-.812-1.451-2.8-5.007-3.185-5.776h-.013c.046.742.049,1.943.049,3.172v2.6Z" transform="translate(-633.355 -280.584)" fill="#fff"/>
    <path id="Caminho_7" data-name="Caminho 7" d="M816.862,318.452h4.16v.856h-3.231v2.109h3.028v.856h-3.028v2.993h-.929Z" transform="translate(-719.726 -280.584)" fill="#fff"/>
    <path id="Caminho_8" data-name="Caminho 8" d="M904.818,321.1c0,1.878-1,3.541-3.017,3.541-1.9,0-2.945-1.551-2.945-3.505s1.085-3.505,3.022-3.505c1.807,0,2.94,1.432,2.94,3.47m-4.975.006c0,1.446.675,2.683,2,2.683,1.431,0,1.99-1.265,1.99-2.675,0-1.434-.634-2.632-1.993-2.632-1.388,0-2,1.194-2,2.624" transform="translate(-791.969 -279.857)" fill="#fff"/>
    <path id="Caminho_9" data-name="Caminho 9" d="M1000.975,322.317v2.95h-.934v-6.814h2.548a1.8,1.8,0,0,1,2.031,1.832,1.558,1.558,0,0,1-1.056,1.6c.481.145.938.548.938,1.737v.3a5.259,5.259,0,0,0,.087,1.34h-.913a5.007,5.007,0,0,1-.113-1.477v-.136c0-.928-.241-1.336-1.362-1.336Zm0-.838h1.342c.932,0,1.334-.376,1.334-1.1,0-.692-.422-1.084-1.251-1.084h-1.425Z" transform="translate(-881.122 -280.584)" fill="#fff"/>
    <path id="Caminho_10" data-name="Caminho 10" d="M1095.782,322.429c0-1.246.014-2.536.041-3.263h-.036c-.278,1.159-1.234,3.959-1.942,6.1h-.836c-.535-1.767-1.525-4.914-1.81-6.115h-.031c.05.789.072,2.281.072,3.45v2.665h-.883v-6.814h1.41c.681,2.051,1.5,4.686,1.716,5.582h.014c.151-.7,1.131-3.581,1.838-5.582h1.367v6.814h-.921Z" transform="translate(-960.698 -280.584)" fill="#fff"/>
    <path id="Caminho_11" data-name="Caminho 11" d="M1193.709,308.832l-.65,1.955h-.938l2.249-6.814h1.171l2.345,6.814h-1l-.672-1.955Zm2.27-.856c-.578-1.724-.9-2.67-1.044-3.206h-.009c-.156.6-.519,1.732-.984,3.206Zm.985-5.957-1.583,1.353h-.91l1.334-1.353Z" transform="translate(-1050.362 -266.105)" fill="#fff"/>
    <path id="Caminho_12" data-name="Caminho 12" d="M1278.381,319.308h-2.034v-.856h5.02v.856h-2.035v5.958h-.951Z" transform="translate(-1124.571 -280.584)" fill="#fff"/>
    <rect id="Retângulo_3" data-name="Retângulo 3" width="0.945" height="6.814" transform="translate(162.465 37.868)" fill="#fff"/>
    <path id="Caminho_13" data-name="Caminho 13" d="M1430.715,322.576a2.476,2.476,0,0,1-2.575,2.051c-1.927,0-2.887-1.543-2.887-3.471,0-1.854.966-3.528,2.925-3.528a2.381,2.381,0,0,1,2.537,2.083h-.945a1.56,1.56,0,0,0-1.628-1.254c-1.354,0-1.9,1.315-1.9,2.667,0,1.3.515,2.674,1.94,2.674a1.587,1.587,0,0,0,1.586-1.222Z" transform="translate(-1255.771 -279.858)" fill="#fff"/>
    <path id="Caminho_14" data-name="Caminho 14" d="M1517.263,323.311l-.65,1.955h-.938l2.249-6.814h1.171l2.345,6.814h-1l-.672-1.955Zm2.27-.856c-.578-1.724-.9-2.669-1.044-3.206h-.009c-.156.6-.518,1.732-.984,3.206Z" transform="translate(-1335.44 -280.584)" fill="#fff"/>
    <path id="Caminho_15" data-name="Caminho 15" d="M51.022,40.525a15.629,15.629,0,0,1,2.959.288A28.47,28.47,0,0,1,33.213,56.419a29.5,29.5,0,0,1-4.8.4A28.413,28.413,0,1,1,54.114,16.307a14.609,14.609,0,0,1-2.8.265,14.973,14.973,0,0,1-8.862-2.881,18.913,18.913,0,0,0-1.908-1.62A20.15,20.15,0,0,0,28.408,8.06a20.352,20.352,0,1,0,12.125,36.7,20.669,20.669,0,0,0,1.635-1.355,14.914,14.914,0,0,1,8.854-2.881M65.193,21.978a6.546,6.546,0,0,0-2.007.313l-.05.017-.052.01c-1.337.3-2.643.712-2.955.817-.677.252-6.734,2.477-11.423,2.477-5.2,0-9.211-2-13.54-4.42a14.3,14.3,0,0,0-6.8-2.024l-.344,0c-.085,0-.277-.01-.362-.01a9.233,9.233,0,1,0,.06,18.462l.1.012a4.557,4.557,0,0,0,.553.027,14.353,14.353,0,0,0,6.794-2.028c4.329-2.419,8.336-4.42,13.54-4.42,4.683,0,10.751,2.225,11.485,2.5a30.9,30.9,0,0,0,3.448.911,9.817,9.817,0,0,0,1.38.178l.174.006a6.416,6.416,0,1,0,0-12.831" transform="translate(0 0)" fill="#fff"/>
  </g>
</svg>
