<?xml version="1.0" encoding="UTF-8"?>
<svg id="Layer_2" data-name="Layer 2" xmlns="http://www.w3.org/2000/svg" viewBox="0 0 444.59 514.96">
  <defs>
    <style>
      .cls-1 {
        letter-spacing: -.01em;
      }

      .cls-2, .cls-3, .cls-4, .cls-5 {
        fill: #fff;
      }

      .cls-6 {
        letter-spacing: 0em;
      }

      .cls-7 {
        letter-spacing: 0em;
      }

      .cls-8 {
        letter-spacing: 0em;
      }

      .cls-3 {
        fill-rule: evenodd;
      }

      .cls-9 {
        letter-spacing: 0em;
      }

      .cls-10 {
        letter-spacing: 0em;
      }

      .cls-11 {
        letter-spacing: 0em;
      }

      .cls-12 {
        fill: #182b4a;
      }

      .cls-13 {
        fill: #00a4bb;
      }

      .cls-14 {
        letter-spacing: 0em;
      }

      .cls-15 {
        letter-spacing: 0em;
      }

      .cls-16 {
        letter-spacing: -.02em;
      }

      .cls-4 {
        font-size: 6.71px;
      }

      .cls-4, .cls-5 {
        font-family: Averta-Black, Averta;
        font-weight: 800;
      }

      .cls-17 {
        letter-spacing: -.02em;
      }

      .cls-18 {
        fill: #104b89;
      }

      .cls-19 {
        fill: #787878;
      }

      .cls-20 {
        fill: #3077ae;
      }

      .cls-21 {
        letter-spacing: -.03em;
      }

      .cls-22 {
        letter-spacing: 0em;
      }

      .cls-5 {
        font-size: 9.08px;
      }

      .cls-23 {
        fill: #317cb5;
      }

      .cls-24 {
        letter-spacing: -.03em;
      }

      .cls-25 {
        letter-spacing: -.02em;
      }

      .cls-26 {
        letter-spacing: -.03em;
      }

      .cls-27 {
        letter-spacing: -.03em;
      }

      .cls-28 {
        letter-spacing: -.03em;
      }

      .cls-29 {
        letter-spacing: 0em;
      }

      .cls-30 {
        letter-spacing: -.04em;
      }

      .cls-31 {
        letter-spacing: 0em;
      }
    </style>
  </defs>
  <g id="Layer_1-2" data-name="Layer 1">
    <g>
      <rect class="cls-12" y="30.78" width="99.27" height="126.66" rx="7.69" ry="7.69"/>
      <rect class="cls-23" x="157.37" y="30.78" width="99.27" height="126.66" rx="7.69" ry="7.69"/>
      <rect class="cls-18" x="314.74" y="30.78" width="99.27" height="126.66" rx="7.69" ry="7.69"/>
      <rect class="cls-20" y="209.54" width="99.27" height="126.66" rx="7.69" ry="7.69"/>
      <rect class="cls-12" x="157.37" y="209.54" width="99.27" height="126.66" rx="7.69" ry="7.69"/>
      <rect class="cls-18" y="388.29" width="99.27" height="126.66" rx="7.69" ry="7.69"/>
      <rect class="cls-13" x="157.37" y="388.29" width="99.27" height="126.66" rx="7.69" ry="7.69"/>
      <rect class="cls-13" x="314.74" y="209.54" width="99.27" height="126.66" rx="7.69" ry="7.69"/>
      <text class="cls-5" transform="translate(26.19 137.02)"><tspan class="cls-25" x="0" y="0">F</tspan><tspan x="4.9" y="0">abricação</tspan></text>
      <text class="cls-5" transform="translate(8.17 302.07)"><tspan class="cls-11" x="0" y="0">C</tspan><tspan x="6.37" y="0">ole</tspan><tspan class="cls-17" x="19.11" y="0">t</tspan><tspan x="22.33" y="0">a e </tspan><tspan class="cls-9" x="36.78" y="0">r</tspan><tspan x="40.08" y="0">eciclagem</tspan></text>
      <text class="cls-5" transform="translate(184.72 128.78)"><tspan class="cls-11" x="0" y="0">C</tspan><tspan x="6.37" y="0">omp</tspan><tspan class="cls-11" x="24.97" y="0">r</tspan><tspan x="28.31" y="0">a de</tspan><tspan x="-19.71" y="10.89">equipamen</tspan><tspan class="cls-21" x="27.13" y="10.89">t</tspan><tspan x="30.31" y="10.89">os n</tspan><tspan class="cls-26" x="46.86" y="10.89">o</tspan><tspan class="cls-27" x="51.91" y="10.89">v</tspan><tspan x="56.55" y="10.89">os</tspan></text>
      <text class="cls-5" transform="translate(350.42 128.78)"><tspan x="0" y="0">U</tspan><tspan class="cls-11" x="6.28" y="0">s</tspan><tspan x="10.19" y="0">o de</tspan><tspan x="-15.68" y="10.89">equipamen</tspan><tspan class="cls-28" x="31.16" y="10.89">t</tspan><tspan class="cls-29" x="34.34" y="10.89">os</tspan></text>
      <g>
        <text class="cls-4" transform="translate(35.1 471.84)"><tspan x="0" y="0">T</tspan><tspan class="cls-22" x="3.92" y="0">R</tspan><tspan x="8.22" y="0">I</tspan><tspan class="cls-30" x="10.28" y="0">A</tspan><tspan x="14.66" y="0">GEM</tspan><tspan x="-27.51" y="8.05">(Sepa</tspan><tspan class="cls-14" x="-10.04" y="8.05">r</tspan><tspan class="cls-31" x="-7.57" y="8.05">açã</tspan><tspan class="cls-1" x="3.79" y="8.05">o</tspan><tspan x="7.61" y="8.05">. desmon</tspan><tspan class="cls-16" x="35.14" y="8.05">t</tspan><tspan x="37.52" y="8.05">agem,</tspan><tspan x="-16.37" y="16.11">de</tspan><tspan class="cls-14" x="-8.72" y="16.11">s</tspan><tspan x="-5.83" y="16.11">ca</tspan><tspan class="cls-14" x="1.59" y="16.11">r</tspan><tspan class="cls-31" x="4.06" y="16.11">ac</tspan><tspan class="cls-24" x="11.48" y="16.11">t</tspan><tspan x="13.83" y="16.11">eri</tspan><tspan class="cls-15" x="21.84" y="16.11">z</tspan><tspan class="cls-31" x="24.96" y="16.11">ação e</tspan><tspan x="-17.56" y="24.16">destruição de dados)</tspan></text>
        <g>
          <polygon class="cls-2" points="37.22 448.96 37.22 423.87 34.19 422.47 34.19 447.56 37.22 448.96"/>
          <polygon class="cls-2" points="33.12 421.98 23.94 417.74 23.94 442.83 33.12 447.07 33.12 421.98"/>
          <rect class="cls-2" x="62.09" y="431.33" width="2.69" height="2.69" transform="translate(-225.66 104.57) rotate(-33.04)"/>
          <path class="cls-2" d="M65.9,414.51c-3.6-5.54-11.02-7.11-16.56-3.51-5.54,3.6-7.11,11.02-3.51,16.56,3.6,5.54,11.02,7.11,16.56,3.51,5.54-3.6,7.11-11.02,3.51-16.56Zm-1.15,8.41c-.5,2.37-1.9,4.41-3.93,5.73-1.48,.96-3.19,1.47-4.94,1.47h0c-3.09,0-5.94-1.54-7.63-4.13-2.73-4.2-1.54-9.84,2.66-12.57,1.48-.96,3.19-1.47,4.94-1.47,3.09,0,5.94,1.54,7.63,4.13,1.32,2.03,1.78,4.46,1.27,6.83Z"/>
          <path class="cls-2" d="M65.57,433.58l-2.17,1.41c-.52,.34-.73,.94-.46,1.34l8.23,12.65c.26,.4,.89,.45,1.41,.12l2.17-1.41c.52-.34,.73-.94,.46-1.34l-8.23-12.65c-.26-.4-.89-.45-1.41-.12Z"/>
          <path class="cls-2" d="M44.15,428.65c-.44-.67-.8-1.38-1.11-2.1l-4.75-2.19v25.09l10.22,4.71v-21.28c-1.71-1.06-3.22-2.48-4.36-4.24Z"/>
          <path class="cls-2" d="M48.25,409.32c1.54-1,3.26-1.66,5.04-1.99l-4.11-1.82-25.23,11.18,9.37,4.32,9.38-4.61c1.01-2.9,2.93-5.38,5.55-7.08Z"/>
          <path class="cls-2" d="M52.4,415.56c.18,.32,.57,.46,.91,.31,.16-.07,.33-.14,.51-.2,2.34-.78,4.84,0,6.34,1.79,.19,.23,.5,.32,.78,.22h0c.48-.16,.66-.75,.33-1.14-1.87-2.24-4.99-3.23-7.92-2.24-.21,.07-.41,.15-.61,.23-.4,.17-.56,.64-.35,1.02h0Z"/>
          <g>
            <path class="cls-2" d="M66.06,430.56l.54,.82c.85,.09,1.61,.52,2.06,1.21l5.74,8.82v-23.69l-4.62,2.13c.31,3.87-1,7.78-3.72,10.69Z"/>
            <path class="cls-2" d="M61.26,437.42c-.47-.72-.53-1.59-.27-2.38l-.54-.83c-1.46,.51-2.99,.8-4.56,.8-2.13,0-4.18-.5-6.04-1.39v20.55l17.16-7.92-5.74-8.83Z"/>
          </g>
          <path class="cls-2" d="M42.2,418.14c.03-.12,.06-.23,.09-.35l-7.72,3.79,3.28,1.52,4.05-1.99c0-.99,.09-1.98,.3-2.97Z"/>
          <path class="cls-2" d="M69.67,418.87l4.74-2.19-6.63-2.94c.99,1.61,1.62,3.35,1.89,5.12Z"/>
          <path class="cls-2" d="M41.94,422.28l-2.84,1.4,3.46,1.6c-.31-.97-.53-1.97-.62-2.99Z"/>
        </g>
      </g>
      <g>
        <g>
          <path class="cls-3" d="M69.59,250.57l4.63,8.02c.58,1.02,.93,2.24,.84,3.3-.85,4.29-2.84,5.78-6.92,5.87h-2.36l-6.49-11.24,10.31-5.95Z"/>
          <path class="cls-3" d="M57.46,268.71h8.86c3.14,0,6.15,.33,8.08-2.84v.03s-7.66,13.28-7.66,13.28c-.83,1.21-1.98,1.4-3.23,1.43h-6.04v4.47l-7.13-10.42,7.13-10.42v4.47Z"/>
        </g>
        <g>
          <path class="cls-3" d="M48.02,281.1h-9.26c-1.17,0-2.4-.31-3.28-.92-3.29-2.88-3.59-5.35-1.62-8.93l1.18-2.05h12.98s0,11.9,0,11.9Z"/>
          <path class="cls-3" d="M38.37,261.53l-4.43,7.67c-1.57,2.72-3.36,5.16-1.58,8.41h-.03s-7.67-13.29-7.67-13.29c-.63-1.32-.23-2.41,.38-3.51l.41-.71h0s2.61-4.52,2.61-4.52l-3.87-2.24,12.59-.96,5.46,11.38-3.87-2.24Z"/>
        </g>
        <g>
          <path class="cls-3" d="M32.45,247.31l4.63-8.02c.59-1.01,1.47-1.92,2.44-2.38,4.14-1.41,6.43-.43,8.54,3.06l1.18,2.05-6.49,11.24-10.31-5.95Z"/>
          <path class="cls-3" d="M54.22,248.74l-4.43-7.67c-1.57-2.72-2.79-5.49-6.5-5.57l.03-.02h15.33c1.46,.11,2.2,1.01,2.85,2.08l.41,.71h0s2.61,4.52,2.61,4.52l3.87-2.24-5.46,11.38-12.59-.96,3.87-2.24Z"/>
        </g>
      </g>
      <path class="cls-2" d="M85.95,111.62h-26.56V54.71h26.56v56.91Zm-11.01-14.28h6.83v-6.83h-6.83v6.83Zm-11.07,0h6.83v-6.83h-6.83v6.83Zm11.07,10.47h6.83v-6.83h-6.83v6.83Zm-11.07,0h6.83v-6.83h-6.83v6.83Zm11.07-20.95h6.83v-6.83h-6.83v6.83Zm-11.07,0h6.83v-6.83h-6.83v6.83Zm11.07-10.47h6.83v-6.83h-6.83v6.83Zm-11.07,0h6.83v-6.83h-6.83v6.83Zm11.07-10.47h6.83v-6.83h-6.83v6.83Zm-11.07,0h6.83v-6.83h-6.83v6.83Zm-47.47-11.45c-.82,.57-.55,2.22,.28,2.88,.97,.77,2.21,.56,3.2-.08,.9-.59,1.17-1.78,1.17-1.78,1.74,1.19,3.06-.33,3.06-.33,0,0,1.31,1.47,2.46-.08,.34,.84,1.3,1.6,2.73,1.61,.74,0,2.05-.49,2.45-1.2,.29,.11,.62,.18,.96,.18,.3,0,.58-.05,.85-.14,.45,.29,1,.49,1.59,.46,.81-.04,1.12-.21,1.61-.72,.2,.05,.86,.12,1.22,.07,.71-.09,1.84-.82,1.99-1.76,.47-.07,.95-.44,1.23-.92,.4-.67,.34-2.15-.84-2.98-.76-.54-1.68-.44-2.44-.28-.36-.25-.82-.39-1.31-.39-.45,0-.86,.12-1.21,.32-.49-.42-1.15-.68-1.89-.68-.77,0-1.47,.29-1.97,.75-.2-.05-.41-.08-.62-.08-.39,0-.76,.08-1.09,.23-.44-.57-1.17-.95-2-.95-.88,0-1.65,.42-2.07,1.06-.6-.5-1.54-.57-2.38-.15-.83-.8-2.28-.86-3.47-.08-1.05,.69-1.57,1.83-1.4,2.83-.52,0-1.12,.19-1.56,.61-.67,.64-.56,1.59-.56,1.59Zm4.6,6.92c0-.76-.67-1.37-1.5-1.37h-3.31c-.83,0-1.5,.61-1.5,1.37l-.91,24.79h8.12l-.91-24.79Zm21.61,26.37v-7.26s-15.09,7.26-15.09,7.26H13.31v23.86H57.32v-31.11l-14.71,7.26Zm1.89,6.6h8.86v4.74h-8.86v-4.74Zm-11.65,0h8.85v4.74h-8.85v-4.74Zm-11.65,0h8.85v4.74h-8.85v-4.74Z"/>
      <path class="cls-2" d="M364.37,53.49c12.68,0,13.03,19.84,3.92,25.36-2.79,1.7-4.97,1.74-7.84,0-9.6-5.82-8.39-25.36,3.92-25.36Zm10.97,28.77c-.56-.38-1.15-.83-1.78-1.34-.33-.27-.68-.52-1.05-.75-.28-.18-.65-.15-.91,.05-4.8,3.77-10,3.51-14.47,0-.26-.21-.63-.23-.91-.05-.37,.23-.71,.48-1.04,.75-8.79,7.25-11.49,.76-11.82,12.99-.01,.43,.34,.78,.79,.78h22.36c0-5.74,3.7-10.64,8.83-12.43Zm9.18-7.36c2.42,1.47,4.26,1.43,6.62,0,7.69-4.67,7.39-21.4-3.31-21.4s-11.41,16.49-3.31,21.4Zm11.07,1.75c-.28-.23-.57-.45-.88-.63-.24-.15-.55-.13-.77,.04-4.05,3.18-8.44,2.97-12.21,0-.22-.17-.53-.18-.77-.04-.31,.18-.6,.4-.88,.63-1.74,1.43-3.19,2.22-4.41,2.74,1.31,1.03,2.43,1.69,3.42,2.16,.2,0,.4-.01,.59-.01,4.93,0,9.23,2.71,11.48,6.73h13.74c.37,0,.68-.3,.67-.66-.28-10.54-2.42-4.73-9.98-10.96Zm-57.98-1.75c2.36,1.43,4.2,1.47,6.62,0,8.11-4.91,7.09-21.4-3.31-21.4s-11,16.74-3.31,21.4Zm15.47,4.48c-1.21-.51-2.67-1.31-4.4-2.74-.29-.23-.58-.45-.89-.63-.23-.15-.55-.13-.77,.04-3.78,2.97-8.16,3.18-12.21,0-.22-.17-.53-.18-.77-.04-.3,.18-.6,.4-.88,.63-7.56,6.23-9.69,.42-9.98,10.96,0,.36,.29,.66,.67,.66h17.48c.21-1.09,.51-1.91,.91-2.61,1.14-2.04,2.96-2.57,4.55-3.05,1.58-.48,3.54-1.06,6.29-3.22Zm34.95,8.88c1.38,1.78,2.19,4.01,2.19,6.43,0,5.82-4.72,10.55-10.55,10.55s-10.55-4.72-10.55-10.55,4.28-10.09,9.7-10.51c.28-.02,.56-.04,.84-.04,2.93,0,5.59,1.2,7.5,3.13,.3,.31,.59,.64,.85,.98Zm-2.48,1.98c-.12-.12-.26-.23-.42-.31h0c-.25-.13-.53-.21-.82-.21-.46,0-.9,.18-1.23,.51l-4.45,4.45-.74,.74-.74-.74-.87-.87c-.33-.33-.76-.51-1.23-.51s-.9,.18-1.23,.51c-.25,.25-.41,.55-.48,.87-.12,.56,.04,1.17,.48,1.6l2.85,2.85c.33,.33,.77,.51,1.23,.51s.91-.18,1.24-.51l4.45-4.45,1.79-1.79,.19-.19c.68-.68,.68-1.79,0-2.47Z"/>
      <text class="cls-5" transform="translate(171.27 310.5)"><tspan class="cls-8" x="0" y="0">P</tspan><tspan x="5.44" y="0">on</tspan><tspan class="cls-21" x="15.96" y="0">t</tspan><tspan class="cls-7" x="19.15" y="0">o de ent</tspan><tspan class="cls-6" x="52.56" y="0">r</tspan><tspan class="cls-7" x="55.85" y="0">ega</tspan></text>
      <path class="cls-2" d="M223.7,252.65c0-10.91-8.84-19.76-19.75-19.77-10.91,0-19.75,8.86-19.75,19.77-.81,9.67,13.01,29.68,18,36.56,.56,.77,1.16,1.16,1.75,1.17,.58,0,1.18-.39,1.75-1.17,4.99-6.88,18.82-26.89,18-36.56Zm-19.75,11.47c-6.33,0-11.45-5.14-11.45-11.47s5.13-11.46,11.45-11.47c6.33,0,11.45,5.14,11.45,11.47s-5.13,11.46-11.45,11.47Z"/>
      <g>
        <path class="cls-2" d="M187.38,424.89h.78l1.7,29.31v.52c-1.3,.24-2.29,1.38-2.29,2.75,0,1.54,1.25,2.8,2.8,2.8s2.8-1.25,2.8-2.8c0-.78-.32-1.48-.83-1.99,.45-.29,.99-.48,1.61-.57,.18-.03,.32-.19,.32-.37v-.22h25.46v.4c-1.3,.24-2.29,1.38-2.29,2.75,0,1.54,1.25,2.8,2.8,2.8s2.8-1.25,2.8-2.8c0-.78-.32-1.48-.83-1.98,.46-.3,1.01-.49,1.65-.58,.16-.02,.28-.16,.28-.33v-.26h0l1.71-29.43h.78v-2.14h-39.24v2.14Zm32.85,34.18c-.88,0-1.6-.72-1.6-1.6,0-.71,.46-1.3,1.1-1.51v1.82h.98c.15-.58,.37-1.06,.64-1.45,.3,.29,.49,.7,.49,1.15,0,.88-.72,1.6-1.6,1.6Zm-29.86,0c-.88,0-1.6-.72-1.6-1.6,0-.71,.46-1.3,1.1-1.51v1.82h.98c.15-.58,.37-1.06,.64-1.45,.3,.29,.49,.7,.49,1.15,0,.88-.72,1.6-1.6,1.6Z"/>
        <path class="cls-2" d="M224.13,413.09h-34.26c-3.65,0-3.65,8.95-3.65,8.95h41.55s0-8.95-3.65-8.95Zm-33.34,6.84h-.93c.21-2.56,.86-6.61,2.93-6.61h.06c-1.39,.87-1.88,4.28-2.06,6.61Zm4.49,0h-.93c.21-2.56,.86-6.61,2.93-6.61h.06c-1.39,.87-1.88,4.28-2.06,6.61Zm23.44,0c-.18-2.33-.67-5.75-2.06-6.61h.06c2.07,0,2.73,4.05,2.93,6.61h-.93Zm4.49,0c-.18-2.33-.67-5.75-2.06-6.61h.06c2.07,0,2.73,4.05,2.93,6.61h-.93Z"/>
      </g>
      <text class="cls-5" transform="translate(166.76 479.55)"><tspan x="0" y="0">Ma</tspan><tspan class="cls-21" x="13.02" y="0">t</tspan><tspan x="16.2" y="0">éria prima pa</tspan><tspan class="cls-11" x="71.81" y="0">r</tspan><tspan x="75.15" y="0">a</tspan><tspan x="4.92" y="10.89">cadeia p</tspan><tspan class="cls-6" x="40.62" y="10.89">r</tspan><tspan x="43.91" y="10.89">odu</tspan><tspan class="cls-6" x="59.75" y="10.89">t</tspan><tspan class="cls-10" x="63.09" y="10.89">i</tspan><tspan class="cls-27" x="65.59" y="10.89">v</tspan><tspan x="70.23" y="10.89">a</tspan></text>
      <g>
        <g>
          <path class="cls-2" d="M201.18,99.03c-3.28,0-5.94,2.66-5.94,5.94s2.66,5.94,5.94,5.94,5.94-2.66,5.94-5.94-2.66-5.94-5.94-5.94Z"/>
          <path class="cls-2" d="M222.81,99.03c-3.28,0-5.94,2.66-5.94,5.94s2.66,5.94,5.94,5.94,5.94-2.66,5.94-5.94-2.66-5.94-5.94-5.94Z"/>
          <polygon class="cls-2" points="193.43 96.25 193.53 96.22 193.42 96.22 193.43 96.25"/>
          <path class="cls-2" d="M229.19,86.68c.08-.08,.15-.17,.21-.27,0,0,0,0,0,0,.02-.03,.03-.06,.05-.09,.07-.12,.12-.24,.16-.38l8.34-21.45c.52-1.34,.06-2.85-1.11-3.68h0c-.78-.55-1.71-.84-2.66-.84h-45.43l-2.43-8.95c-.35-1.14-1.4-1.93-2.6-1.93l-11.07-.05c-1.45,0-2.55,.81-2.55,2.13,0,1.32,1.12,2.65,2.56,2.65l9.75,.24,11.15,42.17h35.72c1.76,0,3.19-1.01,3.19-2.25s-1.43-2.25-3.19-2.25h-32.03l-1.16-4.27h31.3c.73,0,1.38-.3,1.79-.77Z"/>
        </g>
        <path class="cls-2" d="M218.58,55.52l-5.14-3.35c-.3-.19-.66-.26-.99-.19,.08-.29,.03-.61-.15-.88l-8.33-12.4c-.34-.5-1.02-.63-1.52-.3l-19.15,12.85c-.5,.34-.63,1.02-.3,1.52l8.33,12.4c.16,.25,.41,.4,.68,.46-.02-.03,0-.08,.03-.1l20.26-13.6s.09-.01,.11,.02,.01,.09-.02,.11l-20.26,13.6s-.04,.01-.05,.01c-.17,.28-.24,.62-.18,.96l1.15,6.03c.04,.21,.13,.4,.24,.56,.5,.81,1.7,1.56,2.37,1.11l23.48-15.76c.67-.45,.43-1.85-.13-2.62-.1-.17-.24-.32-.42-.44Zm-25.45-10.32c.21-.14,.48-.08,.62,.12s.08,.48-.12,.62-.48,.08-.62-.12-.08-.48,.12-.62Zm16.92,5.34c.12,.18,.07,.41-.1,.53l-17.74,11.91c-.18,.12-.41,.07-.53-.1l-6.67-9.94c-.12-.18-.07-.41,.1-.53l17.74-11.91c.18-.12,.41-.07,.53,.1l6.67,9.94Zm5.47,5.25l.13,.09c.05,.03,.05,.09,0,.12l-1.13,.76c-.05,.03-.13,.03-.18,0l-.12-.09s-.05-.09,0-.13l1.12-.75c.05-.03,.13-.03,.18,0Zm-.65-.42l-1.18,.79c-.05,.03-.13,.03-.18,0l-.4-.29s-.05-.09,0-.13l1.15-.77c.05-.03,.13-.03,.18,0l.42,.28c.05,.03,.05,.09,0,.12Zm-7.28,3.81l-.87,.58c-.05,.03-.12,.02-.16-.02l-.26-.31s-.03-.11,.02-.15l.84-.57c.05-.03,.12-.02,.17,.02l.28,.31s.03,.11-.02,.14Zm.85-.3c.05-.03,.13-.03,.17,.02l.32,.33s.04,.11-.01,.14l-.9,.6c-.05,.03-.12,.02-.16-.02l-.3-.34s-.03-.11,.02-.14l.87-.59Zm-11.22,6.12l-.12-.37c-.02-.06,0-.13,.06-.17l.81-.55c.05-.03,.11-.01,.13,.04l.14,.36c.02,.06,0,.13-.05,.16l-.83,.56c-.05,.03-.11,.01-.13-.04Zm-.74-.33c-.05,.03-.11,.01-.12-.04l-.11-.35c-.02-.06,0-.13,.06-.17l.79-.53c.05-.03,.11-.01,.13,.04l.12,.34c.02,.06,0,.13-.06,.16l-.81,.54Zm1.34-.9c-.05,.03-.11,.01-.13-.04l-.12-.33c-.02-.06,0-.13,.05-.16l.79-.53c.05-.03,.11-.02,.13,.04l.13,.32c.02,.06,0,.13-.05,.16l-.81,.54Zm.77,.31l-.14-.36c-.02-.06,0-.13,.05-.16l.81-.55c.05-.03,.11-.02,.14,.04l.15,.35c.02,.06,0,.13-.05,.16l-.83,.56c-.05,.03-.11,.02-.13-.04Zm.56-1.2c-.05,.03-.11,.02-.13-.04l-.14-.32c-.02-.06,0-.13,.05-.16l.79-.53c.05-.03,.11-.02,.14,.04l.15,.31c.03,.05,0,.13-.04,.16l-.81,.54Zm.81,.28l-.16-.34c-.03-.05,0-.13,.05-.16l.81-.55c.05-.03,.11-.02,.14,.04l.17,.33c.03,.05,0,.13-.04,.16l-.83,.56c-.05,.03-.11,.02-.14-.04Zm.53-1.18c-.05,.03-.11,.02-.14-.04l-.15-.31c-.03-.05,0-.13,.04-.16l.79-.53c.05-.03,.12-.02,.14,.03l.17,.3c.03,.05,.01,.12-.04,.16l-.81,.54Zm.67-.07c-.03-.05-.01-.12,.04-.16l.81-.55c.05-.03,.12-.02,.15,.03l.19,.32c.03,.05,.02,.12-.04,.16l-.83,.56c-.05,.03-.11,.02-.14-.04l-.18-.33Zm4.89-3.42c.05-.03,.12-.02,.16,.02l.25,.28s.03,.11-.02,.14l-.83,.56c-.05,.03-.12,.02-.16-.02l-.23-.29s-.03-.11,.02-.15l.81-.55Zm-.57-.53l.79-.53c.05-.03,.12-.02,.17,.02l.23,.25s.03,.11-.02,.14l-.81,.54c-.05,.03-.12,.02-.16-.02l-.22-.26s-.03-.11,.02-.14Zm-.17,.78l-.81,.54c-.05,.03-.12,.02-.16-.03l-.2-.27s-.02-.12,.03-.15l.79-.53c.05-.03,.12-.02,.16,.02l.22,.26s.03,.11-.02,.15Zm-.6,.65c.05-.03,.12-.02,.16,.03l.23,.3s.03,.11-.02,.15l-.83,.56c-.05,.03-.12,.02-.15-.03l-.21-.3s-.02-.12,.03-.15l.81-.55Zm.06,1.69l-.87,.58c-.05,.03-.12,.02-.15-.03l-.22-.34c-.03-.05-.02-.12,.03-.15l.84-.57c.05-.03,.12-.02,.16,.03l.24,.33s.02,.12-.03,.15Zm.83-.28c.05-.03,.12-.02,.16,.03l.27,.36s.03,.11-.02,.15l-.9,.6c-.05,.03-.12,.02-.15-.03l-.25-.37s-.02-.12,.03-.15l.87-.59Zm-1.28,.99l.25,.37c.03,.05,.02,.12-.03,.15l-.9,.6c-.05,.03-.12,.02-.15-.03l-.23-.38c-.03-.05-.02-.12,.03-.16l.87-.59c.05-.03,.12-.02,.15,.03Zm-.34-2.14l-.81,.54c-.05,.03-.12,.02-.15-.03l-.19-.28c-.03-.05-.02-.12,.03-.15l.79-.53c.05-.03,.12-.02,.16,.03l.2,.27s.02,.12-.03,.15Zm-.61,.66c.05-.03,.12-.02,.15,.03l.21,.31c.03,.05,.02,.12-.03,.15l-.83,.56c-.05,.03-.12,.02-.15-.03l-.19-.32c-.03-.05-.02-.12,.03-.15l.81-.55Zm-.69,.09c.03,.05,.02,.12-.03,.15l-.81,.54c-.05,.03-.12,.02-.15-.03l-.17-.29c-.03-.05-.01-.12,.04-.16l.79-.53c.05-.03,.12-.02,.15,.03l.18,.28Zm-.54,1.84c-.03-.05-.01-.12,.04-.16l.84-.57c.05-.03,.12-.02,.15,.03l.22,.34c.03,.05,.02,.12-.03,.15l-.87,.58c-.05,.03-.12,.02-.15-.03l-.2-.36Zm.6,.49c.05-.03,.12-.02,.15,.03l.23,.39c.03,.05,.01,.12-.04,.16l-.9,.6c-.05,.03-.11,.02-.14-.04l-.21-.4c-.03-.05-.01-.12,.04-.16l.87-.59Zm-.4,1.4l3.83-2.57c.05-.03,.12-.02,.16,.03l.3,.39s.03,.11-.02,.15l-3.92,2.63c-.05,.03-.11,.02-.14-.04l-.23-.43c-.03-.05-.01-.12,.04-.16Zm2.98-3.4c-.05,.03-.12,.02-.16-.03l-.24-.33s-.02-.12,.03-.15l.84-.57c.05-.03,.12-.02,.16,.02l.26,.32s.03,.11-.02,.15l-.87,.58Zm1.23,.57l.91-.61c.05-.03,.12-.02,.16,.02l.31,.38s.03,.11-.02,.15l-.93,.63c-.05,.03-.12,.02-.16-.03l-.3-.39s-.03-.11,.02-.15Zm.01-.33c-.05,.03-.12,.02-.16-.03l-.28-.35s-.03-.11,.02-.15l.87-.59c.05-.03,.12-.02,.16,.02l.29,.34s.03,.11-.02,.14l-.9,.6Zm.43-2.37c-.05,.03-.12,.02-.16-.02l-.25-.28s-.03-.11,.02-.14l.81-.55c.05-.03,.13-.03,.17,.02l.27,.27s.04,.11-.01,.14l-.83,.56Zm.19-1.08c-.05,.03-.13,.03-.17-.02l-.24-.25s-.03-.11,.02-.14l.79-.53c.05-.03,.13-.03,.17,.01l.25,.24s.04,.1-.01,.14l-.81,.54Zm.75-.26l.81-.55c.05-.03,.13-.03,.17,.01l.29,.26s.04,.1-.01,.14l-.83,.56c-.05,.03-.13,.03-.17-.02l-.27-.27s-.04-.11,.01-.14Zm.58-.63c-.05,.03-.13,.03-.17-.01l-.26-.24s-.04-.1,.01-.14l.79-.53c.05-.03,.13-.03,.17,.01l.27,.23s.04,.1,0,.13l-.81,.54Zm.75-.26l.81-.55c.05-.03,.13-.03,.18,0l.31,.25s.04,.1,0,.13l-.83,.56c-.05,.03-.13,.03-.17-.01l-.29-.26s-.04-.1,0-.13Zm.12-.99l.79-.53c.05-.03,.13-.03,.18,0l.29,.22s.05,.09,0,.13l-.81,.54c-.05,.03-.13,.03-.18,0l-.28-.23s-.04-.1,0-.13Zm1.05,1.18l.84-.57c.05-.03,.13-.03,.18,0l.35,.27s.05,.1,0,.13l-.87,.58c-.05,.03-.13,.03-.17,0l-.33-.28s-.04-.1,0-.13Zm.67-.71c-.05,.03-.13,.03-.18,0l-.31-.25s-.04-.1,0-.13l.81-.55c.05-.03,.13-.03,.18,0l.33,.24s.05,.09,0,.13l-.83,.56Zm-.55-1.26l.58-.39c.05-.03,.13-.03,.18,0l.31,.22s.05,.09,0,.12l-.59,.4c-.05,.03-.13,.03-.18,0l-.3-.22s-.05-.09,0-.13Zm1.32,1l.6-.4c.05-.03,.05-.09,0-.12l-.54-.39s-.05-.09,0-.12l.81-.55c.05-.03,.13-.03,.18,0l1.14,.75c.05,.03,.05,.09,0,.12l-.76,.51-.14,.1-.14,.1-.61,.41c-.05,.03-.13,.03-.18,0l-.35-.27s-.05-.09,0-.13Zm-.38-1.63l.58-.39c.05-.03,.13-.03,.18,0l.32,.21c.05,.03,.05,.09,0,.12l-.59,.4c-.05,.03-.13,.03-.18,0l-.31-.22s-.05-.09,0-.12Zm-15.59,10.59l.1,.35c.02,.06-.01,.13-.06,.17l-.81,.54c-.05,.03-.1,.01-.12-.05l-.09-.36c-.01-.06,.01-.13,.06-.17l.79-.53c.05-.03,.1-.01,.12,.04Zm-1.24,.83l.09,.37c.01,.06-.02,.13-.07,.17l-.81,.54c-.05,.03-.1,.01-.11-.05l-.07-.38c-.01-.06,.02-.14,.07-.17l.79-.53c.05-.03,.1-.01,.12,.05Zm-.74,1.29l1.29-.87c.05-.03,.1-.01,.12,.05l.1,.39c.01,.06-.01,.13-.06,.17l-1.32,.89c-.05,.03-.1,.01-.11-.05l-.08-.41c-.01-.06,.02-.14,.07-.17Zm2.18-.49c.05-.03,.1-.01,.12,.04l.12,.42c.02,.06-.01,.13-.06,.17l-2.06,1.38c-.05,.03-.1,.01-.11-.05l-.09-.45c-.01-.06,.02-.14,.07-.17l2.01-1.35Zm-.13-.17c-.05,.03-.1,.01-.12-.04l-.11-.39c-.02-.06,.01-.13,.06-.17l.81-.55c.05-.03,.11-.01,.12,.04l.12,.38c.02,.06,0,.13-.06,.17l-.83,.56Zm.71,.41l-.12-.42c-.02-.06,0-.13,.06-.17l.84-.57c.05-.03,.11-.01,.13,.04l.14,.41c.02,.06,0,.13-.06,.17l-.87,.58c-.05,.03-.11,.01-.12-.04Zm1.31,1.37l-.16-.49c-.02-.06,0-.13,.06-.17l.91-.61c.05-.03,.11-.01,.13,.04l.18,.48c.02,.06,0,.13-.05,.16l-.93,.63c-.05,.03-.11,.01-.13-.04Zm.69-1.51l-.9,.6c-.05,.03-.11,.01-.13-.04l-.15-.45c-.02-.06,0-.13,.06-.17l.87-.59c.05-.03,.11-.01,.13,.04l.16,.44c.02,.06,0,.13-.05,.16Zm-.46-.77c-.05,.03-.11,.01-.13-.04l-.14-.4c-.02-.06,0-.13,.05-.16l.84-.57c.05-.03,.11-.02,.13,.04l.16,.39c.02,.06,0,.13-.05,.16l-.87,.58Zm1.26,1.28l-.18-.47c-.02-.06,0-.13,.05-.16l.91-.61c.05-.03,.11-.02,.14,.04l.2,.46c.02,.06,0,.13-.05,.16l-.93,.63c-.05,.03-.11,.02-.13-.04Zm.66-1.49l-.9,.6c-.05,.03-.11,.02-.13-.04l-.17-.43c-.02-.06,0-.13,.05-.16l.87-.59c.05-.03,.11-.02,.14,.04l.18,.42c.02,.06,0,.13-.05,.16Zm-.5-.74c-.05,.03-.11,.02-.13-.04l-.16-.39c-.02-.06,0-.13,.05-.16l.84-.57c.05-.03,.11-.02,.14,.04l.18,.37c.03,.05,0,.13-.04,.16l-.87,.58Zm1.32,1.23l-.21-.45c-.03-.05,0-.13,.05-.16l.91-.61c.05-.03,.11-.02,.14,.04l.22,.44c.03,.05,0,.13-.04,.16l-.93,.63c-.05,.03-.11,.02-.14-.04Zm.64-1.48l-.9,.6c-.05,.03-.11,.02-.14-.04l-.19-.41c-.03-.05,0-.13,.05-.16l.87-.59c.05-.03,.11-.02,.14,.04l.2,.4c.03,.05,0,.13-.04,.16Zm-.55-.71c-.05,.03-.11,.02-.14-.04l-.18-.37c-.03-.05,0-.13,.04-.16l.84-.57c.05-.03,.11-.02,.14,.04l.2,.36c.03,.05,.01,.12-.04,.16l-.87,.58Zm2.34,2.93l-.46-1.02c-.07-.15-.02-.34,.12-.43l5.84-3.92c.14-.09,.33-.07,.45,.05l.77,.81c.15,.16,.12,.41-.06,.53l-6.14,4.12c-.18,.12-.42,.05-.51-.14Zm5.25-5.8c-.05,.03-.12,.02-.16-.02l-.33-.37s-.03-.11,.02-.14l.9-.61c.05-.03,.13-.03,.17,.02l.35,.36s.04,.11-.01,.14l-.93,.62Zm-.5-1.89c-.05,.03-.13,.03-.17-.02l-.28-.3s-.03-.11,.02-.14l.84-.57c.05-.03,.13-.03,.17,.02l.3,.29s.04,.1-.01,.14l-.87,.58Zm.85-.3l.87-.59c.05-.03,.13-.03,.17,.01l.34,.32s.04,.1-.01,.14l-.9,.6c-.05,.03-.13,.03-.17-.02l-.32-.33s-.04-.11,.01-.14Zm.65,.67l.9-.61c.05-.03,.13-.03,.17,.01l.37,.34s.04,.1-.01,.14l-.93,.62c-.05,.03-.13,.03-.17-.02l-.35-.35s-.04-.11,.01-.14Zm-.08-1.32c-.05,.03-.13,.03-.17-.01l-.31-.29s-.04-.1,.01-.14l.84-.57c.05-.03,.13-.03,.17,.01l.32,.28s.04,.1,0,.13l-.87,.58Zm.87-.31l.87-.59c.05-.03,.13-.03,.18,0l.37,.3s.04,.1,0,.13l-.9,.6c-.05,.03-.13,.03-.17-.01l-.35-.31s-.04-.1,0-.13Zm.89,.93l1.12-.75c.05-.03,.13-.03,.18,0l.11,.09s.04,.1,0,.13l-1.13,.76c-.05,.03-.13,.03-.17-.01l-.1-.09s-.04-.1,0-.13Zm.53-1.76s-.04-.1,0-.13l.87-.59c.05-.03,.13-.03,.18,0l.39,.29s.05,.09,0,.13l-.9,.6c-.05,.03-.13,.03-.18,0l-.37-.3Zm.58,.5l1.04-.7c.05-.03,.13-.03,.18,0l.08,.05c.05,.03,.05,.09,0,.12l-1.06,.71c-.05,.03-.13,.03-.18,0l-.07-.05s-.05-.09,0-.13Zm.35,.28l1.12-.75c.05-.03,.13-.03,.18,0l.12,.09s.05,.09,0,.13l-1.13,.76c-.05,.03-.13,.03-.18,0l-.11-.09s-.04-.1,0-.13Zm-18.48,11.56l-.1-.49c-.01-.06,.02-.14,.07-.17l2.73-1.83c.05-.03,.11-.01,.12,.04l.14,.45c.02,.06,0,.13-.06,.17l-2.8,1.88c-.05,.03-.1,.01-.11-.05Zm3.13-1.53l.15,.49c.02,.06,0,.13-.06,.17l-.93,.63c-.05,.03-.1,.01-.12-.04l-.14-.51c-.02-.06,.01-.13,.06-.17l.91-.61c.05-.03,.11-.01,.12,.04Zm-2.91,2.56l-.1-.54c-.01-.06,.02-.14,.07-.17l1.33-.89c.05-.03,.1-.01,.12,.05l.13,.52c.01,.06-.01,.13-.06,.17l-1.37,.92c-.05,.03-.1,.01-.11-.05Zm24.6-12.67c-.11,.17-.25,.31-.42,.43l-23.48,15.76c-.17,.11-.35,.19-.55,.23-.06,.01-.12-.03-.13-.09-.01-.06,.03-.12,.09-.13,.17-.03,.32-.09,.47-.19l23.48-15.76c.15-.1,.27-.22,.36-.36,.03-.05,.1-.07,.15-.03,.05,.03,.07,.1,.03,.15Z"/>
        <g>
          <path class="cls-2" d="M227.51,49.08c-.98-.39-2.1,.08-2.49,1.06l-1.72,4.29-.44-.18c-.35-.14-.52-.54-.38-.9,.09-.22-.02-.47-.24-.55-.21-.08-.45,.02-.53,.23l-1.77,4.4c-.09,.22,.02,.46,.24,.55,.21,.08,.45-.04,.54-.24,.14-.35,.54-.52,.9-.38l.44,.18-1.72,4.29c-.39,.98,.08,2.1,1.06,2.49l6.12-15.24Zm-4.47,7.2l.1-.25c.14-.19,.39-.26,.61-.17,.27,.11,.4,.41,.29,.68-.11,.27-.41,.4-.68,.29-.22-.09-.35-.32-.32-.55Z"/>
          <path class="cls-2" d="M228.24,67.06l2.92,1.17c.28,.11,.59-.02,.7-.3l.65-1.63h0s0,0,0,0l5.04-12.61c.11-.28-.02-.59-.3-.7l-9.37-3.75-6.1,15.25,6.44,2.58Zm-5.14-3.13l5.36-13.39,8.01,3.2-4.56,11.39-.24-.46-.12-.23-.17,.24-.19,.27-.68-1.05,1.41-.7,.33-.16-.24-.22-.33-.3,1.45-.54-1.82,.32-.26,.05,.18,.24,.2,.27-1.21,.33-.22-1.56-.05-.36-.28,.16-.38,.22-.07-1.55-.26,1.83-.04,.26,.28-.1,.32-.11-.06,1.25-1.55-.27-.36-.06,.07,.32,.09,.43-1.49-.41,1.66,.81,.24,.12v-.29s-.01-.33-.01-.33l1.17,.45-.74,1.39-.17,.33,.32,.04,.44,.05-.29,.44-5.71-2.28Zm5.9,2.36l.53-.55,.18-.19-.28-.09-.32-.1,.79-.97,1.1,1.13,.26,.26,.13-.29,.18-.4,.24,.3-.69,1.74-2.12-.85Z"/>
        </g>
      </g>
      <g>
        <path class="cls-2" d="M323.31,280.89h1.74v4.91h2.56v1.53h-4.29v-6.44Z"/>
        <path class="cls-2" d="M327.97,285.11c0-1.37,1-2.31,2.43-2.31s2.43,.95,2.43,2.31-1,2.31-2.43,2.31-2.43-.94-2.43-2.31Zm3.24,0c0-.52-.33-.88-.81-.88s-.81,.36-.81,.88,.35,.88,.81,.88,.81-.37,.81-.88Z"/>
        <path class="cls-2" d="M333.62,285.93v-1.76h-.48v-1.28h.48v-1.39l1.62-.17v1.56h.96v1.28h-.96v1.41c0,.21,.03,.45,.29,.45,.06,0,.21-.02,.33-.07l.39,1.13c-.33,.19-.66,.33-1.3,.33-.76,0-1.33-.47-1.33-1.49Z"/>
        <path class="cls-2" d="M340.93,285.5h-2.91c.08,.42,.45,.64,.92,.64,.4,0,.72-.18,1.02-.49l.84,.92c-.38,.46-1.08,.85-2.03,.85-1.33,0-2.33-.95-2.33-2.31s.96-2.31,2.3-2.31,2.23,.94,2.23,2.28c0,.11-.02,.32-.04,.43Zm-2.91-.88h1.38c-.08-.37-.32-.59-.67-.59s-.64,.21-.71,.59Z"/>
        <path class="cls-2" d="M348.25,280.65v6.67h-1.54v-.42h-.02c-.27,.34-.67,.51-1.18,.51-1.22,0-2.06-.94-2.06-2.31s.85-2.31,1.96-2.31c.46,0,.88,.18,1.19,.54h.01v-2.68h1.62Zm-1.55,4.46c0-.53-.35-.89-.82-.89s-.79,.36-.79,.89,.33,.89,.79,.89,.82-.35,.82-.89Z"/>
        <path class="cls-2" d="M353.36,285.5h-2.91c.08,.42,.45,.64,.92,.64,.4,0,.72-.18,1.02-.49l.84,.92c-.38,.46-1.08,.85-2.03,.85-1.33,0-2.33-.95-2.33-2.31s.96-2.31,2.3-2.31,2.23,.94,2.23,2.28c0,.11-.02,.32-.04,.43Zm-2.91-.88h1.38c-.08-.37-.32-.59-.67-.59s-.64,.21-.71,.59Z"/>
        <path class="cls-2" d="M360.39,285.5h-2.91c.08,.42,.45,.64,.92,.64,.4,0,.72-.18,1.02-.49l.84,.92c-.38,.46-1.08,.85-2.03,.85-1.33,0-2.33-.95-2.33-2.31s.96-2.31,2.3-2.31,2.23,.94,2.23,2.28c0,.11-.02,.32-.04,.43Zm-2.91-.88h1.38c-.08-.37-.32-.59-.67-.59s-.64,.21-.71,.59Z"/>
        <path class="cls-2" d="M365.64,282.89v6.23h-1.62v-2.18h-.01c-.27,.3-.64,.48-1.1,.48-1.22,0-2.06-.94-2.06-2.31s.85-2.31,1.96-2.31c.46,0,.88,.18,1.19,.54h.01v-.45h1.62Zm-1.55,2.22c0-.53-.35-.89-.82-.89s-.79,.36-.79,.89,.33,.89,.79,.89,.82-.35,.82-.89Z"/>
        <path class="cls-2" d="M370.82,282.89v4.44h-1.62v-.47h-.02c-.31,.38-.73,.57-1.21,.57-.91,0-1.57-.49-1.57-1.93v-2.6h1.62v2.21c0,.63,.17,.89,.58,.89,.34,0,.6-.27,.6-.87v-2.23h1.62Z"/>
        <path class="cls-2" d="M371.53,281.51c0-.48,.38-.86,.93-.86s.93,.37,.93,.86-.38,.88-.93,.88-.93-.38-.93-.88Zm.12,1.38h1.62v4.44h-1.62v-4.44Z"/>
        <path class="cls-2" d="M378.9,285.1c0,1.37-.84,2.31-2.06,2.31-.46,0-.83-.17-1.1-.48h-.01v2.18h-1.62v-6.23h1.62v.45h.01c.31-.36,.73-.54,1.19-.54,1.11,0,1.96,.95,1.96,2.31Zm-1.63,0c0-.53-.33-.89-.79-.89s-.82,.36-.82,.89,.35,.89,.82,.89,.79-.35,.79-.89Z"/>
        <path class="cls-2" d="M384.06,282.89v4.44h-1.54v-.42h-.01c-.27,.34-.65,.51-1.14,.51-1.22,0-2.06-.94-2.06-2.31s.85-2.31,1.96-2.31c.44,0,.85,.18,1.15,.53h.01v-.44h1.62Zm-1.55,2.22c0-.53-.34-.89-.78-.89-.46,0-.79,.36-.79,.89s.33,.89,.79,.89,.78-.35,.78-.89Z"/>
        <path class="cls-2" d="M390.39,282.79c.92,0,1.58,.5,1.58,1.93v2.6h-1.62v-2.23c0-.48-.11-.87-.54-.87-.33,0-.59,.27-.59,.87v2.23h-1.62v-2.23c0-.48-.11-.87-.54-.87-.35,0-.62,.27-.62,.87v2.23h-1.62v-4.44h1.62v.5h0c.31-.4,.74-.6,1.19-.6,.54,0,1,.18,1.27,.63h.01c.34-.42,.84-.63,1.44-.63h0Z"/>
        <path class="cls-2" d="M397.05,285.5h-2.91c.08,.42,.45,.64,.92,.64,.4,0,.72-.18,1.02-.49l.84,.92c-.38,.46-1.08,.85-2.03,.85-1.33,0-2.33-.95-2.33-2.31s.96-2.31,2.3-2.31,2.23,.94,2.23,2.28c0,.11-.02,.32-.04,.43Zm-2.91-.88h1.38c-.08-.37-.32-.59-.67-.59s-.64,.21-.71,.59Z"/>
        <path class="cls-2" d="M402.16,284.64v2.69h-1.62v-2.3c0-.63-.18-.8-.58-.8s-.65,.27-.65,.87v2.23h-1.62v-4.44h1.62v.49h0c.33-.39,.78-.58,1.26-.58,.9,0,1.58,.41,1.58,1.85Z"/>
        <path class="cls-2" d="M402.82,283.8h2.8v1.44h-2.8v-1.44Z"/>
        <path class="cls-2" d="M336.92,296.82v-1.76h-.48v-1.28h.48v-1.39l1.62-.17v1.56h.96v1.28h-.96v1.41c0,.21,.03,.45,.29,.45,.06,0,.21-.02,.33-.07l.39,1.13c-.33,.19-.66,.33-1.3,.33-.76,0-1.33-.47-1.33-1.49Z"/>
        <path class="cls-2" d="M339.74,296c0-1.37,1-2.31,2.43-2.31s2.43,.95,2.43,2.31-1,2.31-2.43,2.31-2.43-.94-2.43-2.31Zm3.24,0c0-.52-.33-.88-.81-.88s-.81,.36-.81,.88,.35,.88,.81,.88,.81-.37,.81-.88Z"/>
        <path class="cls-2" d="M344.89,297.65l.74-1c.38,.34,.77,.5,1.11,.5,.22,0,.33-.07,.33-.18s-.06-.19-.61-.34c-.75-.22-1.41-.6-1.41-1.45,0-.97,.78-1.49,1.7-1.49,.73,0,1.21,.19,1.73,.56l-.75,1.08c-.29-.29-.66-.46-.93-.46-.14,0-.28,.05-.28,.18,0,.09,.11,.17,.55,.31,1.01,.32,1.5,.62,1.5,1.48s-.62,1.47-1.87,1.47c-.69,0-1.3-.21-1.81-.66Z"/>
        <path class="cls-2" d="M355.61,293.78v4.44h-1.62v-.47h-.02c-.31,.38-.73,.57-1.21,.57-.91,0-1.57-.49-1.57-1.93v-2.6h1.62v2.21c0,.63,.17,.89,.58,.89,.34,0,.6-.27,.6-.87v-2.23h1.62Z"/>
        <path class="cls-2" d="M356.07,297.65l.74-1c.38,.34,.77,.5,1.11,.5,.22,0,.33-.07,.33-.18s-.06-.19-.61-.34c-.75-.22-1.41-.6-1.41-1.45,0-.97,.78-1.49,1.7-1.49,.73,0,1.21,.19,1.73,.56l-.75,1.08c-.29-.29-.66-.46-.93-.46-.14,0-.28,.05-.28,.18,0,.09,.11,.17,.55,.31,1.01,.32,1.5,.62,1.5,1.48s-.62,1.47-1.87,1.47c-.69,0-1.3-.21-1.81-.66Z"/>
        <path class="cls-2" d="M364.85,293.78v4.44h-1.54v-.42h-.01c-.27,.34-.65,.51-1.14,.51-1.22,0-2.06-.94-2.06-2.31s.85-2.31,1.96-2.31c.44,0,.85,.18,1.15,.53h.01v-.44h1.62Zm-1.55,2.22c0-.53-.34-.89-.78-.89-.46,0-.79,.36-.79,.89s.33,.89,.79,.89,.78-.35,.78-.89Z"/>
        <path class="cls-2" d="M370.23,291.54v6.67h-1.54v-.42h-.02c-.27,.34-.67,.51-1.18,.51-1.22,0-2.06-.94-2.06-2.31s.85-2.31,1.96-2.31c.46,0,.88,.18,1.19,.54h.01v-2.68h1.62Zm-1.55,4.46c0-.53-.35-.89-.82-.89s-.79,.36-.79,.89,.33,.89,.79,.89,.82-.35,.82-.89Z"/>
        <path class="cls-2" d="M370.85,296c0-1.37,1-2.31,2.43-2.31s2.43,.95,2.43,2.31-1,2.31-2.43,2.31-2.43-.94-2.43-2.31Zm3.24,0c0-.52-.33-.88-.81-.88s-.81,.36-.81,.88,.35,.88,.81,.88,.81-.37,.81-.88Z"/>
        <path class="cls-2" d="M376,297.65l.74-1c.38,.34,.77,.5,1.11,.5,.22,0,.33-.07,.33-.18s-.06-.19-.61-.34c-.75-.22-1.41-.6-1.41-1.45,0-.97,.78-1.49,1.7-1.49,.73,0,1.21,.19,1.73,.56l-.75,1.08c-.29-.29-.66-.46-.93-.46-.14,0-.28,.05-.28,.18,0,.09,.11,.17,.55,.31,1.01,.32,1.5,.62,1.5,1.48s-.62,1.47-1.87,1.47c-.69,0-1.3-.21-1.81-.66Z"/>
        <path class="cls-2" d="M382.17,296c0-1.37,1-2.31,2.43-2.31s2.43,.95,2.43,2.31-1,2.31-2.43,2.31-2.43-.94-2.43-2.31Zm3.24,0c0-.52-.33-.88-.81-.88s-.81,.36-.81,.88,.35,.88,.81,.88,.81-.37,.81-.88Z"/>
        <path class="cls-2" d="M392.01,293.78v4.44h-1.62v-.47h-.02c-.31,.38-.73,.57-1.21,.57-.91,0-1.57-.49-1.57-1.93v-2.6h1.62v2.21c0,.63,.17,.89,.58,.89,.34,0,.6-.27,.6-.87v-2.23h1.62Z"/>
        <path class="cls-2" d="M333.94,306.89c0-1.37,1-2.31,2.43-2.31s2.43,.95,2.43,2.31-1,2.31-2.43,2.31-2.43-.94-2.43-2.31Zm3.24,0c0-.52-.33-.88-.81-.88s-.81,.36-.81,.88,.35,.88,.81,.88,.81-.37,.81-.88Z"/>
        <path class="cls-2" d="M344.22,306.89c0,1.37-.84,2.31-2.06,2.31-.51,0-.9-.17-1.18-.51h-.02v.42h-1.54v-6.67h1.62v2.68h.01c.31-.35,.73-.54,1.19-.54,1.11,0,1.96,.95,1.96,2.31Zm-1.63,0c0-.53-.33-.89-.79-.89s-.82,.36-.82,.89,.35,.89,.82,.89,.79-.35,.79-.89Z"/>
        <path class="cls-2" d="M344.5,308.54l.74-1c.38,.34,.77,.5,1.11,.5,.22,0,.33-.07,.33-.18s-.06-.19-.61-.34c-.75-.22-1.41-.6-1.41-1.45,0-.97,.78-1.49,1.7-1.49,.73,0,1.21,.19,1.73,.56l-.75,1.08c-.29-.29-.66-.46-.93-.46-.14,0-.28,.05-.28,.18,0,.09,.11,.17,.55,.31,1.01,.32,1.5,.62,1.5,1.48s-.62,1.47-1.87,1.47c-.69,0-1.3-.21-1.81-.66Z"/>
        <path class="cls-2" d="M348.55,306.89c0-1.37,1-2.31,2.43-2.31s2.43,.95,2.43,2.31-1,2.31-2.43,2.31-2.43-.94-2.43-2.31Zm3.24,0c0-.52-.33-.88-.81-.88s-.81,.36-.81,.88,.35,.88,.81,.88,.81-.37,.81-.88Z"/>
        <path class="cls-2" d="M354.07,302.44h1.62v6.67h-1.62v-6.67Z"/>
        <path class="cls-2" d="M360.83,307.29h-2.91c.08,.42,.45,.64,.92,.64,.4,0,.72-.18,1.02-.49l.84,.92c-.38,.46-1.08,.85-2.03,.85-1.33,0-2.33-.95-2.33-2.31s.96-2.31,2.3-2.31,2.23,.94,2.23,2.28c0,.11-.02,.32-.04,.43Zm-2.91-.88h1.38c-.08-.37-.32-.59-.67-.59s-.64,.21-.71,.59Z"/>
        <path class="cls-2" d="M361.66,307.72v-1.76h-.48v-1.28h.48v-1.39l1.62-.17v1.56h.96v1.28h-.96v1.41c0,.21,.03,.45,.29,.45,.06,0,.21-.02,.33-.07l.39,1.13c-.33,.19-.66,.33-1.3,.33-.76,0-1.33-.47-1.33-1.49Z"/>
        <path class="cls-2" d="M364.47,306.89c0-1.37,1-2.31,2.43-2.31s2.43,.95,2.43,2.31-1,2.31-2.43,2.31-2.43-.94-2.43-2.31Zm3.24,0c0-.52-.33-.88-.81-.88s-.81,.36-.81,.88,.35,.88,.81,.88,.81-.37,.81-.88Z"/>
        <path class="cls-2" d="M369.63,308.54l.74-1c.38,.34,.77,.5,1.11,.5,.22,0,.33-.07,.33-.18s-.06-.19-.61-.34c-.75-.22-1.41-.6-1.41-1.45,0-.97,.78-1.49,1.7-1.49,.73,0,1.21,.19,1.73,.56l-.75,1.08c-.29-.29-.66-.46-.93-.46-.14,0-.28,.05-.28,.18,0,.09,.11,.17,.55,.31,1.01,.32,1.5,.62,1.5,1.48s-.62,1.47-1.87,1.47c-.69,0-1.3-.21-1.81-.66Z"/>
        <path class="cls-2" d="M380.78,306.89c0,1.37-.84,2.31-2.06,2.31-.46,0-.83-.17-1.1-.48h-.01v2.18h-1.62v-6.23h1.62v.45h.01c.31-.36,.73-.54,1.19-.54,1.11,0,1.96,.95,1.96,2.31Zm-1.63,0c0-.53-.33-.89-.79-.89s-.82,.36-.82,.89,.35,.89,.82,.89,.79-.35,.79-.89Z"/>
        <path class="cls-2" d="M385.94,304.67v4.44h-1.54v-.42h-.01c-.27,.34-.65,.51-1.14,.51-1.22,0-2.06-.94-2.06-2.31s.85-2.31,1.96-2.31c.44,0,.85,.18,1.15,.53h.01v-.44h1.62Zm-1.55,2.22c0-.53-.34-.89-.78-.89-.46,0-.79,.36-.79,.89s.33,.89,.79,.89,.78-.35,.78-.89Z"/>
        <path class="cls-2" d="M389.61,304.58v1.73c-.13,0-.27,0-.34,0-.62,0-.92,.36-.92,.87v1.94h-1.62v-4.44h1.62v.61h.01c.32-.46,.76-.7,1.24-.7h0Z"/>
        <path class="cls-2" d="M394.62,304.67v4.44h-1.54v-.42h-.01c-.27,.34-.65,.51-1.14,.51-1.22,0-2.06-.94-2.06-2.31s.85-2.31,1.96-2.31c.44,0,.85,.18,1.15,.53h.01v-.44h1.62Zm-1.55,2.22c0-.53-.34-.89-.78-.89-.46,0-.79,.36-.79,.89s.33,.89,.79,.89,.78-.35,.78-.89Z"/>
        <path class="cls-2" d="M351.47,313.33v6.67h-1.54v-.42h-.02c-.27,.34-.67,.51-1.18,.51-1.22,0-2.06-.94-2.06-2.31s.85-2.31,1.96-2.31c.46,0,.88,.18,1.19,.54h.01v-2.68h1.62Zm-1.55,4.46c0-.53-.35-.89-.82-.89s-.79,.36-.79,.89,.33,.89,.79,.89,.82-.35,.82-.89Z"/>
        <path class="cls-2" d="M356.57,318.18h-2.91c.08,.42,.45,.64,.92,.64,.4,0,.72-.18,1.02-.49l.84,.92c-.38,.46-1.08,.85-2.03,.85-1.33,0-2.33-.95-2.33-2.31s.96-2.31,2.3-2.31,2.23,.94,2.23,2.28c0,.11-.02,.32-.04,.43Zm-2.91-.88h1.38c-.08-.37-.32-.59-.67-.59s-.64,.21-.71,.59Z"/>
        <path class="cls-2" d="M356.89,319.43l.74-1c.38,.34,.77,.5,1.11,.5,.22,0,.33-.07,.33-.18s-.06-.19-.61-.34c-.75-.22-1.41-.6-1.41-1.45,0-.97,.78-1.49,1.7-1.49,.73,0,1.21,.19,1.73,.56l-.75,1.08c-.29-.29-.66-.46-.93-.46-.14,0-.28,.05-.28,.18,0,.09,.11,.17,.55,.31,1.01,.32,1.5,.62,1.5,1.48s-.62,1.47-1.87,1.47c-.69,0-1.3-.21-1.81-.66Z"/>
        <path class="cls-2" d="M360.94,317.79c0-1.37,1-2.31,2.43-2.31,.74,0,1.49,.31,1.94,.92l-1.08,.92c-.2-.23-.46-.4-.82-.4-.51,0-.85,.36-.85,.87s.35,.89,.86,.89c.42,0,.66-.2,.8-.36l1.1,.96c-.38,.46-1.09,.84-2.07,.84-1.33,0-2.33-.94-2.33-2.31Z"/>
        <path class="cls-2" d="M370.37,315.56v4.44h-1.54v-.42h-.01c-.27,.34-.65,.51-1.14,.51-1.22,0-2.06-.94-2.06-2.31s.85-2.31,1.96-2.31c.44,0,.85,.18,1.15,.53h.01v-.44h1.62Zm-1.55,2.22c0-.53-.34-.89-.78-.89-.46,0-.79,.36-.79,.89s.33,.89,.79,.89,.78-.35,.78-.89Z"/>
        <path class="cls-2" d="M374.04,315.47v1.73c-.13,0-.27,0-.34,0-.62,0-.92,.36-.92,.87v1.94h-1.62v-4.44h1.62v.61h.01c.32-.46,.76-.7,1.24-.7h0Z"/>
        <path class="cls-2" d="M374.72,318.61v-1.76h-.48v-1.28h.48v-1.39l1.62-.17v1.56h.96v1.28h-.96v1.41c0,.21,.03,.45,.29,.45,.06,0,.21-.02,.33-.07l.39,1.13c-.33,.19-.66,.33-1.3,.33-.76,0-1.33-.47-1.33-1.49Z"/>
        <path class="cls-2" d="M382.02,318.18h-2.91c.08,.42,.45,.64,.92,.64,.4,0,.72-.18,1.02-.49l.84,.92c-.38,.46-1.08,.85-2.03,.85-1.33,0-2.33-.95-2.33-2.31s.96-2.31,2.3-2.31,2.23,.94,2.23,2.28c0,.11-.02,.32-.04,.43Zm-2.91-.88h1.38c-.08-.37-.32-.59-.67-.59s-.64,.21-.71,.59Z"/>
      </g>
      <g>
        <g>
          <path class="cls-2" d="M323.13,254.63c0,2.63,2.13,4.77,4.76,4.77l11.48,.02v1.18c0,.95-.77,1.71-1.72,1.71-.58,0-1.07,.47-1.06,1.05,0,.56,.47,1.02,1.03,1.02l11.78,.02c.58,0,1.05-.48,1.04-1.06-.01-.55-.5-1.01-1.06-1.01-.95,0-1.71-.77-1.71-1.72v-1.18s11.48,.02,11.48,.02c2.63,0,4.77-2.13,4.77-4.76l-40.79-.06Zm20.72,3.66h-.66c-.55-.15-.96-.65-.96-1.25,0-.71,.58-1.29,1.29-1.29,.71,0,1.29,.58,1.29,1.29,0,.6-.41,1.1-.96,1.25Z"/>
          <path class="cls-2" d="M363.91,236.35v-7.82c0-.74-.6-1.34-1.34-1.34h-4.37v-.02s0,.02,0,.02h-33.73c-.74,0-1.34,.6-1.34,1.34v25.06h40.79v-17.23Zm-2.48,14.75h-35.82v-21.43h30.47l-.84,.99-.42,.5,.71,.17,.81,.19-1.79,2.54-2.91-2.62-.68-.61-.28,.75-.38,1.02-2.59-2.85,2.4,3.9,.34,.56,.38-.63,.43-.71,1.86,2.49-3.39,1.96-.79,.46,.63,.5,.86,.68-3.51,1.58,4.45-1.08,.63-.15-.48-.55-.54-.63,2.94-1,.81,3.83,.19,.89,.67-.44,.91-.6,.42,3.82,.35-4.57,.05-.65-.67,.28-.76,.32-.05-3.11,3.89,.41,.91,.1-.21-.77-.29-1.06,1.28,.27v15.26Zm0-15.77l-1.75-.72-.6-.25,.06,.73,.07,.83-2.97-.92,1.59-3.58,.37-.84-.8-.04-1.09-.05,.48-.84h4.64v5.66Z"/>
        </g>
        <g>
          <path class="cls-2" d="M402.81,264.39h-29.61c-1.55,0-2.81-1.26-2.81-2.81v-2.51c0-.32,.26-.57,.57-.57h15.98c.32,0,.57,.26,.57,.57s-.26,.57-.57,.57h-15.4v1.94c0,.92,.75,1.67,1.67,1.67h29.61c.92,0,1.67-.75,1.67-1.67v-1.94h-11.1c-.32,0-.57-.26-.57-.57s.26-.57,.57-.57h11.68c.32,0,.57,.26,.57,.57v2.51c0,1.55-1.26,2.81-2.81,2.81Z"/>
          <path class="cls-2" d="M391.96,261.9h-7.91c-.2,0-.38-.1-.49-.27l-1.41-2.26c-.17-.27-.09-.62,.18-.79,.27-.17,.62-.09,.79,.18l1.24,1.99h7.28l1.24-1.99c.17-.27,.52-.35,.79-.18,.27,.17,.35,.52,.18,.79l-1.41,2.26c-.1,.17-.29,.27-.49,.27Z"/>
          <path class="cls-2" d="M403.26,259.64c-.32,0-.57-.26-.57-.57v-17.34l-4.18,.79v2.32c0,.2-.11,.39-.29,.5l-2.19,1.26-2,4.12c-.12,.24-.38,.37-.64,.31-.26-.06-.44-.29-.44-.56v-5.5c0-.14,.05-.28,.15-.38l1.59-1.78-.76-.8c-.2-.21-.21-.54-.02-.77l1.92-2.25h-21.54c-.53,0-.97,.43-.97,.97v19.11c0,.32-.26,.57-.57,.57s-.57-.26-.57-.57v-19.11c0-1.16,.95-2.11,2.11-2.11h22.79c.22,0,.43,.13,.52,.33,.09,.2,.06,.44-.08,.61l-2.4,2.8,.77,.81c.2,.22,.21,.55,.01,.77l-1.8,2.01v2.79l.99-2.04c.05-.1,.13-.19,.23-.25l2.05-1.18v-2.47c0-.28,.2-.51,.47-.56l5.32-1.01c.17-.03,.34,.01,.47,.12,.13,.11,.21,.27,.21,.44v18.03c0,.32-.26,.57-.57,.57Z"/>
          <path class="cls-2" d="M400.74,257.19h-25.48c-.32,0-.57-.26-.57-.57v-15.74c0-.32,.26-.57,.57-.57h19.71c.22,0,.43,.13,.52,.33,.09,.2,.06,.44-.08,.61l-.3,.35,.77,.81c.2,.22,.21,.55,.01,.77l-1.8,2.01v2.79l.99-2.04c.05-.1,.13-.19,.23-.25l2.05-1.18v-2.47c0-.28,.2-.51,.47-.56l2.81-.53c.17-.03,.34,.01,.47,.12,.13,.11,.21,.27,.21,.44v15.11c0,.32-.26,.57-.57,.57Zm-24.91-1.14h24.33v-13.84l-1.67,.32v2.32c0,.2-.11,.39-.29,.5l-2.19,1.26-2,4.12c-.12,.24-.38,.37-.64,.31-.26-.06-.44-.29-.44-.56v-5.5c0-.14,.05-.28,.15-.38l1.59-1.78-.76-.8c-.15-.15-.19-.37-.13-.56h-17.96v14.6Z"/>
        </g>
      </g>
      <g>
        <g>
          <rect class="cls-19" x="134.75" y="80.7" width="3.95" height="17.32" rx="1.97" ry="1.97" transform="translate(-23.14 122.85) rotate(-45)"/>
          <rect class="cls-19" x="128.01" y="96.91" width="17.32" height="3.95" rx="1.97" ry="1.97" transform="translate(-29.89 125.6) rotate(-45)"/>
        </g>
        <rect class="cls-19" x="113.78" y="92.14" width="25.7" height="3.95" rx="1.97" ry="1.97"/>
      </g>
      <g>
        <rect class="cls-19" x="45.35" y="15.52" width="17.32" height="3.95" rx="1.97" ry="1.97" transform="translate(3.45 43.31) rotate(-45)"/>
        <rect class="cls-19" x="42.51" y="8.77" width="3.95" height="17.32" rx="1.97" ry="1.97" transform="translate(.7 36.56) rotate(-45)"/>
      </g>
      <g>
        <g>
          <rect class="cls-19" x="118.5" y="268.98" width="3.95" height="17.32" rx="1.97" ry="1.97" transform="translate(-161.03 166.51) rotate(-45)"/>
          <rect class="cls-19" x="111.88" y="266.14" width="17.32" height="3.95" rx="1.97" ry="1.97" transform="translate(-154.28 163.76) rotate(-45)"/>
        </g>
        <rect class="cls-19" x="117.73" y="270.9" width="25.7" height="3.95" rx="1.97" ry="1.97"/>
      </g>
      <g>
        <g>
          <rect class="cls-19" x="134.75" y="438.21" width="3.95" height="17.32" rx="1.97" ry="1.97" transform="translate(-275.93 227.56) rotate(-45)"/>
          <rect class="cls-19" x="128.01" y="454.42" width="17.32" height="3.95" rx="1.97" ry="1.97" transform="translate(-282.69 230.31) rotate(-45)"/>
        </g>
        <rect class="cls-19" x="113.78" y="449.65" width="25.7" height="3.95" rx="1.97" ry="1.97"/>
      </g>
      <g>
        <g>
          <rect class="cls-19" x="45.74" y="368.32" width="17.32" height="3.95" rx="1.97" ry="1.97" transform="translate(-245.9 146.92) rotate(-45)"/>
          <rect class="cls-19" x="42.9" y="361.57" width="3.95" height="17.32" rx="1.97" ry="1.97" transform="translate(-248.65 140.17) rotate(-45)"/>
        </g>
        <rect class="cls-19" x="47.66" y="347.34" width="3.95" height="25.7" rx="1.97" ry="1.97"/>
      </g>
      <g>
        <g>
          <rect class="cls-19" x="291.29" y="80.7" width="3.95" height="17.32" rx="1.97" ry="1.97" transform="translate(22.71 233.54) rotate(-45)"/>
          <rect class="cls-19" x="284.54" y="96.91" width="17.32" height="3.95" rx="1.97" ry="1.97" transform="translate(15.96 236.29) rotate(-45)"/>
        </g>
        <rect class="cls-19" x="270.31" y="92.14" width="25.7" height="3.95" rx="1.97" ry="1.97"/>
      </g>
      <g>
        <g>
          <rect class="cls-19" x="360.48" y="189.23" width="17.32" height="3.95" rx="1.97" ry="1.97" transform="translate(-27.08 317.02) rotate(-45)"/>
          <rect class="cls-19" x="357.64" y="182.48" width="3.95" height="17.32" rx="1.97" ry="1.97" transform="translate(-29.83 310.27) rotate(-45)"/>
        </g>
        <rect class="cls-19" x="362.4" y="168.25" width="3.95" height="25.7" rx="1.97" ry="1.97"/>
      </g>
      <g>
        <g>
          <rect class="cls-19" x="275.04" y="268.98" width="3.95" height="17.32" rx="1.97" ry="1.97" transform="translate(-115.18 277.2) rotate(-45)"/>
          <rect class="cls-19" x="268.42" y="266.14" width="17.32" height="3.95" rx="1.97" ry="1.97" transform="translate(-108.43 274.45) rotate(-45)"/>
        </g>
        <rect class="cls-19" x="274.27" y="270.9" width="25.7" height="3.95" rx="1.97" ry="1.97"/>
      </g>
      <path class="cls-19" d="M431.96,453.53h-157.7c-1.05,0-1.9-.85-1.9-1.9s.85-1.9,1.9-1.9h157.7c4.86,0,8.82-3.96,8.82-8.82V12.62c0-4.86-3.96-8.82-8.82-8.82H59.97c-4.86,0-8.82,3.96-8.82,8.82v8.46c0,1.05-.85,1.9-1.9,1.9s-1.9-.85-1.9-1.9V12.62c0-6.96,5.66-12.62,12.62-12.62H431.96c6.96,0,12.62,5.66,12.62,12.62V440.91c0,6.96-5.66,12.62-12.62,12.62Z"/>
    </g>
  </g>
</svg>