<?xml version="1.0" encoding="UTF-8"?>
<svg id="Layer_2" data-name="Layer 2" xmlns="http://www.w3.org/2000/svg" viewBox="0 0 212.37 126.66">
  <defs>
    <style>
      .cls-1, .cls-2, .cls-3 {
        fill: #fff;
      }

      .cls-2 {
        fill-rule: evenodd;
      }

      .cls-4 {
        letter-spacing: 0em;
      }

      .cls-5 {
        letter-spacing: .02em;
      }

      .cls-6 {
        fill: #104b89;
      }

      .cls-7 {
        letter-spacing: -.04em;
      }

      .cls-8 {
        fill: #3077ae;
      }

      .cls-9 {
        letter-spacing: -.07em;
      }

      .cls-3 {
        font-family: Averta-Black, Averta;
        font-size: 9.08px;
        font-weight: 800;
      }

      .cls-10 {
        letter-spacing: -.01em;
      }

      .cls-11 {
        letter-spacing: 0em;
      }

      .cls-12 {
        letter-spacing: 0em;
      }
    </style>
  </defs>
  <g id="Layer_1-2" data-name="Layer 1">
    <g>
      <g>
        <rect class="cls-6" x="113.1" y="0" width="99.27" height="126.66" rx="7.69" ry="7.69"/>
        <g>
          <g>
            <path class="cls-1" d="M127.28,75.89h-1.21v-1.14h3.69v1.14h-1.21v3.63h-1.27v-3.63Z"/>
            <path class="cls-1" d="M132.66,79.53l-.9-1.46h-.3v1.46h-1.24v-4.77h1.91c1.2,0,1.74,.72,1.74,1.7,0,.7-.3,1.17-.81,1.42h0s1.08,1.66,1.08,1.66h-1.49Zm-1.19-2.56h.39c.41,0,.7-.19,.7-.54,0-.29-.23-.54-.7-.54h-.39v1.09Z"/>
            <path class="cls-1" d="M134.56,74.75h1.3v4.77h-1.3v-4.77Z"/>
            <path class="cls-1" d="M139.33,78.76h-1.53l-.24,.77h-1.34l1.73-4.77h1.22l1.73,4.77h-1.33l-.24-.77Zm-.33-1.07l-.43-1.37h-.01l-.43,1.37h.87Z"/>
            <path class="cls-1" d="M140.82,77.15c0-1.38,.89-2.47,2.44-2.47,.7,0,1.49,.3,1.97,.88l-.91,.76c-.22-.21-.57-.45-1.07-.45-.58,0-1.1,.45-1.1,1.27,0,.68,.42,1.27,1.16,1.27,.25,0,.46-.04,.71-.16v-.44h-.81v-1.03h2.01v2.22c-.43,.32-1.17,.57-1.91,.57-1.38,0-2.49-.86-2.49-2.43Z"/>
            <path class="cls-1" d="M145.83,74.75h3.17v1.14h-1.94v.72h1.52v1.11h-1.52v.67h2.08v1.13h-3.31v-4.77Z"/>
            <path class="cls-1" d="M154.67,74.75v4.77h-1.26v-2.35h-.02l-.8,1.49h-.81l-.8-1.5h-.02v2.36h-1.26v-4.77h1.29l1.19,2.36h.03l1.18-2.36h1.3Z"/>
            <path class="cls-1" d="M126.63,85.46c0-.42,.34-.75,.75-.75s.76,.33,.76,.75-.34,.75-.76,.75-.75-.33-.75-.75Z"/>
            <path class="cls-1" d="M134.73,86.89l.51-.63c.35,.42,.82,.63,1.22,.63,.53,0,.79-.23,.79-.58,0-.41-.32-.55-.92-.76-.72-.26-1.44-.58-1.44-1.45,0-.75,.68-1.33,1.51-1.34,.56,0,1.1,.21,1.58,.59l-.48,.64c-.39-.32-.77-.49-1.1-.49-.37,0-.66,.2-.67,.56,0,.35,.31,.47,.89,.69,.82,.32,1.48,.54,1.48,1.47,0,.98-.88,1.43-1.64,1.43-.61,0-1.23-.23-1.73-.75Z"/>
            <path class="cls-1" d="M141.89,86.2h-2.39c.1,.47,.45,.75,.93,.75,.38,0,.65-.18,.82-.39l.53,.45c-.28,.36-.74,.62-1.38,.62-.96,0-1.68-.67-1.68-1.69s.69-1.69,1.6-1.69c.97,0,1.59,.7,1.59,1.65,0,.12,0,.24-.02,.3Zm-2.38-.61h1.64c-.1-.4-.37-.66-.8-.66s-.73,.23-.84,.66Z"/>
            <path class="cls-1" d="M146.07,85.96c0,1.01-.68,1.68-1.59,1.68-.45,0-.8-.16-1.04-.46h0v1.73h-.75v-4.61h.75v.4h.01c.25-.29,.61-.45,1.04-.45,.9,0,1.58,.71,1.58,1.7Zm-.76,0c0-.63-.42-1.02-.95-1.02-.56,0-.95,.44-.95,1.02s.42,.99,.96,.99,.94-.41,.94-.99Z"/>
            <path class="cls-1" d="M150.01,84.3v3.28h-.72v-.44h0c-.24,.31-.59,.49-1.04,.49-.91,0-1.59-.66-1.59-1.68s.68-1.7,1.58-1.7c.42,0,.77,.15,1.01,.44h.01v-.39h.75Zm-.72,1.66c0-.58-.39-1.02-.93-1.02s-.95,.39-.95,1.02c0,.58,.39,.99,.94,.99,.51,0,.93-.4,.93-.99Z"/>
            <path class="cls-1" d="M152.82,84.26v.84c-.09,0-.17-.01-.23-.01-.57,0-.9,.41-.9,.94v1.55h-.75v-3.28h.75v.49h0c.26-.35,.62-.54,1.02-.54,.03,0,.07,0,.09,0Z"/>
            <path class="cls-1" d="M156.51,84.3v3.28h-.72v-.44h0c-.24,.31-.59,.49-1.04,.49-.91,0-1.59-.66-1.59-1.68s.68-1.7,1.58-1.7c.42,0,.77,.15,1.01,.44h.01v-.39h.75Zm-.72,1.66c0-.58-.39-1.02-.93-1.02s-.95,.39-.95,1.02c0,.58,.39,.99,.94,.99,.51,0,.93-.4,.93-.99Z"/>
            <path class="cls-1" d="M158.96,87.78h0c.41,.03,.62,.21,.62,.55,0,.3-.23,.53-.8,.53-.18,0-.29-.02-.4-.04v-.37c.08,.03,.18,.05,.34,.05,.16,0,.34-.06,.34-.2,0-.12-.19-.23-.56-.23v-.24l.09-.2v-.02c-.79-.14-1.33-.77-1.33-1.66,0-1,.7-1.69,1.7-1.69,.51,0,1.05,.21,1.38,.61l-.51,.44c-.19-.22-.47-.37-.83-.37-.58,0-.97,.41-.97,1s.4,1.01,.97,1.01c.36,0,.66-.16,.83-.35l.52,.46c-.27,.3-.73,.55-1.31,.57l-.08,.15Z"/>
            <path class="cls-1" d="M164.19,84.3v3.28h-.72v-.44h0c-.24,.31-.59,.49-1.04,.49-.91,0-1.59-.66-1.59-1.68s.68-1.7,1.58-1.7c.42,0,.77,.15,1.01,.44h.01v-.39h.75Zm-2.42-.45l-.46-.21c.13-.43,.39-.74,.76-.74,.26,0,.42,.1,.57,.19,.13,.08,.25,.17,.39,.17,.16,0,.3-.13,.38-.34l.45,.15c-.13,.49-.4,.8-.74,.8-.24,0-.43-.11-.59-.21-.13-.08-.25-.15-.38-.15-.17,0-.3,.13-.39,.35Zm1.7,2.11c0-.58-.39-1.02-.93-1.02s-.95,.39-.95,1.02c0,.58,.39,.99,.94,.99,.51,0,.93-.4,.93-.99Z"/>
            <path class="cls-1" d="M164.94,85.95c0-.97,.69-1.69,1.72-1.69s1.72,.69,1.72,1.69-.71,1.69-1.72,1.69-1.72-.73-1.72-1.69Zm2.68,0c0-.6-.42-1.01-.95-1.01-.57,0-.96,.44-.96,1.01s.39,1,.96,1c.53,0,.95-.41,.95-1Z"/>
            <path class="cls-1" d="M126.63,93.51c0-.42,.34-.75,.75-.75s.76,.33,.76,.75-.34,.75-.76,.75-.75-.33-.75-.75Z"/>
            <path class="cls-1" d="M135.04,90.86h1.52c1.51,0,2.48,.98,2.48,2.39s-.92,2.38-2.46,2.38h-1.54v-4.77Zm1.49,4.04c1.01,0,1.67-.71,1.67-1.65s-.67-1.67-1.62-1.67h-.73v3.32h.68Z"/>
            <path class="cls-1" d="M142.86,94.26h-2.39c.1,.47,.45,.75,.93,.75,.38,0,.65-.18,.82-.39l.53,.45c-.28,.36-.74,.62-1.38,.62-.96,0-1.68-.67-1.68-1.69s.69-1.69,1.6-1.69c.97,0,1.59,.7,1.59,1.65,0,.12,0,.24-.02,.3Zm-2.38-.61h1.64c-.1-.4-.37-.66-.8-.66s-.73,.23-.84,.66Z"/>
            <path class="cls-1" d="M143.38,95.21l.38-.56c.26,.26,.54,.39,.95,.39,.29,0,.46-.13,.46-.32,0-.17-.22-.25-.65-.4-.54-.18-1-.43-1-1.07,0-.53,.49-.93,1.16-.93,.42,0,.79,.11,1.16,.41l-.38,.59c-.27-.25-.56-.35-.82-.35-.15,0-.36,.08-.36,.28,0,.16,.21,.28,.52,.4,.7,.28,1.14,.4,1.14,1.05,0,.55-.39,.99-1.22,.99-.53,0-.98-.17-1.33-.48Z"/>
            <path class="cls-1" d="M151.77,93.74v1.9h-.75v-1.71c0-.59-.19-.94-.64-.94-.42,0-.76,.37-.76,1.01v1.64h-.75v-1.71c0-.59-.21-.94-.65-.94s-.79,.37-.79,1.01v1.63h-.75v-3.28h.75v.45h0c.27-.33,.65-.5,1.02-.5,.44,0,.78,.18,.98,.54h.01c.28-.35,.69-.54,1.17-.54,.72,0,1.15,.45,1.15,1.43Z"/>
            <path class="cls-1" d="M152.49,94c0-.97,.69-1.69,1.72-1.69s1.72,.69,1.72,1.69-.72,1.69-1.72,1.69-1.72-.73-1.72-1.69Zm2.68,0c0-.6-.42-1.01-.96-1.01-.57,0-.96,.44-.96,1.01s.39,1,.96,1c.53,0,.96-.41,.96-1Z"/>
            <path class="cls-1" d="M159.78,93.71v1.93h-.75v-1.74c0-.69-.26-.91-.71-.91-.51,0-.85,.35-.85,1v1.65h-.75v-3.28h.75v.45h0c.28-.32,.68-.5,1.1-.5,.72,0,1.2,.41,1.2,1.4Z"/>
            <path class="cls-1" d="M160.76,94.6v-1.6h-.4v-.64h.4v-1.09l.75-.08v1.17h.96v.64h-.96v1.53c0,.33,.11,.46,.32,.46,.13,0,.31-.05,.49-.14l.2,.65c-.2,.1-.4,.19-.83,.19-.56,0-.92-.36-.92-1.09Z"/>
            <path class="cls-1" d="M166.17,92.36v3.28h-.72v-.44h0c-.24,.31-.59,.49-1.04,.49-.91,0-1.59-.66-1.59-1.68s.68-1.7,1.58-1.7c.42,0,.77,.15,1.01,.44h.01v-.39h.75Zm-.72,1.66c0-.58-.39-1.02-.93-1.02s-.95,.39-.95,1.02c0,.58,.39,.99,.94,.99,.51,0,.93-.4,.93-.99Z"/>
            <path class="cls-1" d="M170.25,92.36v2.94c0,.99-.46,1.72-1.67,1.72-.49,0-.97-.12-1.33-.34l.18-.66c.36,.19,.65,.33,1.12,.33,.65,0,.98-.37,.98-.81v-.35h-.01c-.25,.26-.58,.4-.99,.4-.92,0-1.6-.64-1.6-1.62s.65-1.66,1.56-1.66c.38,0,.74,.13,1.02,.4h.01v-.34h.75Zm-.72,1.57c0-.56-.4-.93-.93-.93-.56,0-.93,.39-.93,.94,0,.59,.41,.95,.93,.95s.93-.4,.93-.96Z"/>
            <path class="cls-1" d="M174.16,94.26h-2.39c.1,.47,.45,.75,.93,.75,.38,0,.65-.18,.82-.39l.52,.45c-.28,.36-.74,.62-1.38,.62-.95,0-1.68-.67-1.68-1.69s.69-1.69,1.6-1.69c.97,0,1.59,.7,1.59,1.65,0,.12,0,.24-.02,.3Zm-2.38-.61h1.64c-.09-.4-.37-.66-.8-.66s-.74,.23-.84,.66Z"/>
            <path class="cls-1" d="M180.06,93.74v1.9h-.75v-1.71c0-.59-.19-.94-.64-.94-.42,0-.76,.37-.76,1.01v1.64h-.75v-1.71c0-.59-.21-.94-.65-.94s-.79,.37-.79,1.01v1.63h-.75v-3.28h.75v.45h0c.27-.33,.65-.5,1.02-.5,.44,0,.78,.18,.98,.54h.01c.28-.35,.69-.54,1.17-.54,.72,0,1.15,.45,1.15,1.43Z"/>
            <path class="cls-1" d="M126.63,101.57c0-.42,.34-.75,.75-.75s.76,.33,.76,.75-.34,.75-.76,.75-.75-.33-.75-.75Z"/>
            <path class="cls-1" d="M135.04,98.92h1.52c1.51,0,2.48,.98,2.48,2.39s-.92,2.38-2.46,2.38h-1.54v-4.77Zm1.49,4.04c1.01,0,1.67-.71,1.67-1.65s-.67-1.67-1.62-1.67h-.73v3.32h.68Z"/>
            <path class="cls-1" d="M142.86,102.31h-2.39c.1,.47,.45,.75,.93,.75,.38,0,.65-.18,.82-.39l.53,.45c-.28,.36-.74,.62-1.38,.62-.96,0-1.68-.67-1.68-1.69s.69-1.69,1.6-1.69c.97,0,1.59,.7,1.59,1.65,0,.12,0,.24-.02,.3Zm-2.38-.61h1.64c-.1-.4-.37-.66-.8-.66s-.73,.23-.84,.66Z"/>
            <path class="cls-1" d="M143.38,103.26l.38-.56c.26,.26,.54,.39,.95,.39,.29,0,.46-.13,.46-.32,0-.17-.22-.25-.65-.4-.54-.18-1-.43-1-1.07,0-.53,.49-.93,1.16-.93,.42,0,.79,.11,1.16,.41l-.38,.59c-.27-.25-.56-.35-.82-.35-.15,0-.36,.08-.36,.28,0,.16,.21,.28,.52,.4,.7,.28,1.14,.4,1.14,1.05,0,.55-.39,.99-1.22,.99-.53,0-.98-.17-1.33-.48Z"/>
            <path class="cls-1" d="M146.45,102.06c0-1,.7-1.69,1.7-1.69,.51,0,1.05,.21,1.38,.61l-.51,.44c-.19-.22-.47-.37-.83-.37-.58,0-.97,.41-.97,1s.4,1.01,.97,1.01c.36,0,.66-.16,.83-.35l.52,.46c-.28,.32-.78,.58-1.42,.58-.96,0-1.67-.68-1.67-1.69Z"/>
            <path class="cls-1" d="M153.37,100.41v3.28h-.72v-.44h0c-.24,.31-.59,.49-1.04,.49-.91,0-1.59-.66-1.59-1.68s.68-1.7,1.58-1.7c.42,0,.77,.15,1.01,.44h.01v-.39h.75Zm-.72,1.66c0-.58-.39-1.02-.93-1.02s-.94,.39-.94,1.02c0,.58,.39,.99,.94,.99,.51,0,.93-.4,.93-.99Z"/>
            <path class="cls-1" d="M156.19,100.37v.84c-.09,0-.17-.01-.23-.01-.57,0-.9,.41-.9,.94v1.55h-.75v-3.28h.75v.49h0c.26-.35,.62-.54,1.02-.54,.03,0,.07,0,.09,0Z"/>
            <path class="cls-1" d="M159.88,100.41v3.28h-.72v-.44h0c-.24,.31-.59,.49-1.04,.49-.91,0-1.59-.66-1.59-1.68s.68-1.7,1.58-1.7c.42,0,.77,.15,1.01,.44h.01v-.39h.75Zm-.72,1.66c0-.58-.39-1.02-.93-1.02s-.94,.39-.94,1.02c0,.58,.39,.99,.94,.99,.51,0,.93-.4,.93-.99Z"/>
            <path class="cls-1" d="M160.63,102.06c0-1,.7-1.69,1.7-1.69,.51,0,1.05,.21,1.38,.61l-.51,.44c-.19-.22-.47-.37-.83-.37-.58,0-.97,.41-.97,1s.4,1.01,.97,1.01c.36,0,.66-.16,.83-.35l.52,.46c-.28,.32-.78,.58-1.42,.58-.96,0-1.67-.68-1.67-1.69Z"/>
            <path class="cls-1" d="M164.46,102.65v-1.6h-.4v-.64h.4v-1.09l.75-.08v1.17h.96v.64h-.96v1.53c0,.33,.1,.46,.31,.46,.13,0,.31-.05,.49-.14l.2,.65c-.2,.1-.4,.19-.83,.19-.56,0-.92-.36-.92-1.09Z"/>
            <path class="cls-1" d="M169.66,102.31h-2.39c.1,.47,.45,.75,.93,.75,.38,0,.65-.18,.82-.39l.52,.45c-.28,.36-.74,.62-1.38,.62-.95,0-1.68-.67-1.68-1.69s.69-1.69,1.6-1.69c.97,0,1.59,.7,1.59,1.65,0,.12,0,.24-.02,.3Zm-2.38-.61h1.64c-.09-.4-.37-.66-.8-.66s-.74,.23-.84,.66Z"/>
            <path class="cls-1" d="M172.33,100.37v.84c-.09,0-.17-.01-.23-.01-.57,0-.9,.41-.9,.94v1.55h-.75v-3.28h.75v.49h0c.26-.35,.62-.54,1.02-.54,.03,0,.07,0,.09,0Z"/>
            <path class="cls-1" d="M172.88,99.43c0-.27,.22-.5,.51-.5s.5,.23,.5,.5-.23,.5-.5,.5-.51-.22-.51-.5Zm.13,.99h.75v3.28h-.75v-3.28Z"/>
            <path class="cls-1" d="M175.57,103.04h0s1.69,0,1.69,0v.64h-2.7v-.53l1.69-2.1h0s-1.57,0-1.57,0v-.64h2.61v.52l-1.71,2.11Z"/>
            <path class="cls-1" d="M181.1,100.41v3.28h-.72v-.44h0c-.24,.31-.59,.49-1.04,.49-.91,0-1.59-.66-1.59-1.68s.68-1.7,1.58-1.7c.42,0,.77,.15,1.01,.44h.01v-.39h.75Zm-.72,1.66c0-.58-.39-1.02-.93-1.02s-.95,.39-.95,1.02c0,.58,.39,.99,.94,.99,.51,0,.93-.4,.93-.99Z"/>
            <path class="cls-1" d="M183.55,103.89h0c.41,.03,.62,.21,.62,.55,0,.3-.23,.53-.8,.53-.18,0-.3-.02-.4-.04v-.37c.09,.03,.18,.05,.34,.05,.16,0,.34-.06,.34-.2,0-.12-.19-.23-.56-.23v-.24l.09-.2v-.02c-.79-.14-1.33-.77-1.33-1.66,0-1,.7-1.69,1.7-1.69,.51,0,1.05,.21,1.38,.61l-.51,.44c-.19-.22-.47-.37-.83-.37-.58,0-.97,.41-.97,1s.4,1.01,.97,1.01c.36,0,.66-.16,.83-.35l.52,.46c-.27,.3-.73,.55-1.31,.57l-.08,.15Z"/>
            <path class="cls-1" d="M188.77,100.41v3.28h-.72v-.44h0c-.24,.31-.59,.49-1.04,.49-.91,0-1.59-.66-1.59-1.68s.68-1.7,1.58-1.7c.42,0,.77,.15,1.01,.44h.01v-.39h.75Zm-2.42-.45l-.46-.21c.13-.43,.39-.74,.76-.74,.26,0,.42,.1,.57,.19,.13,.08,.25,.17,.39,.17,.16,0,.3-.13,.38-.34l.45,.15c-.13,.49-.4,.8-.75,.8-.24,0-.43-.11-.59-.21-.13-.08-.25-.15-.38-.15-.17,0-.3,.13-.39,.35Zm1.7,2.11c0-.58-.39-1.02-.93-1.02s-.94,.39-.94,1.02c0,.58,.39,.99,.94,.99,.51,0,.93-.4,.93-.99Z"/>
            <path class="cls-1" d="M189.53,102.06c0-.97,.69-1.69,1.72-1.69s1.72,.69,1.72,1.69-.72,1.69-1.72,1.69-1.72-.73-1.72-1.69Zm2.68,0c0-.6-.42-1.01-.96-1.01-.57,0-.96,.44-.96,1.01s.39,1,.96,1c.53,0,.96-.41,.96-1Z"/>
            <path class="cls-1" d="M126.63,109.62c0-.42,.34-.75,.75-.75s.76,.33,.76,.75-.34,.75-.76,.75-.75-.33-.75-.75Z"/>
            <path class="cls-1" d="M135.04,106.97h1.52c1.51,0,2.48,.98,2.48,2.39s-.92,2.38-2.46,2.38h-1.54v-4.77Zm1.49,4.04c1.01,0,1.67-.71,1.67-1.65s-.67-1.67-1.62-1.67h-.73v3.32h.68Z"/>
            <path class="cls-1" d="M142.86,110.37h-2.39c.1,.47,.45,.75,.93,.75,.38,0,.65-.18,.82-.39l.53,.45c-.28,.36-.74,.62-1.38,.62-.96,0-1.68-.67-1.68-1.69s.69-1.69,1.6-1.69c.97,0,1.59,.7,1.59,1.65,0,.12,0,.24-.02,.3Zm-2.38-.61h1.64c-.1-.4-.37-.66-.8-.66s-.73,.23-.84,.66Z"/>
            <path class="cls-1" d="M143.38,111.32l.38-.56c.26,.26,.54,.39,.95,.39,.29,0,.46-.13,.46-.32,0-.17-.22-.25-.65-.4-.54-.18-1-.43-1-1.07,0-.53,.49-.93,1.16-.93,.42,0,.79,.11,1.16,.41l-.38,.59c-.27-.25-.56-.35-.82-.35-.15,0-.36,.08-.36,.28,0,.16,.21,.28,.52,.4,.7,.28,1.14,.4,1.14,1.05,0,.55-.39,.99-1.22,.99-.53,0-.98-.17-1.33-.48Z"/>
            <path class="cls-1" d="M146.73,110.71v-1.6h-.4v-.64h.4v-1.09l.75-.08v1.17h.96v.64h-.96v1.53c0,.33,.1,.46,.31,.46,.13,0,.31-.05,.49-.14l.2,.65c-.2,.1-.4,.19-.83,.19-.56,0-.92-.36-.92-1.09Z"/>
            <path class="cls-1" d="M150.99,108.42v.84c-.08,0-.17-.01-.23-.01-.57,0-.9,.41-.9,.94v1.55h-.75v-3.28h.75v.49h0c.26-.35,.62-.54,1.02-.54,.03,0,.07,0,.09,0Z"/>
            <path class="cls-1" d="M154.55,108.47v3.28h-.75v-.43h0c-.26,.32-.63,.48-1.01,.48-.72,0-1.22-.36-1.22-1.33v-2h.75v1.79c0,.66,.2,.85,.65,.85s.84-.37,.84-1.08v-1.57h.75Z"/>
            <path class="cls-1" d="M155.41,107.48c0-.27,.22-.5,.51-.5s.51,.23,.51,.5-.23,.5-.51,.5-.51-.22-.51-.5Zm.13,.99h.75v3.28h-.75v-3.28Z"/>
            <path class="cls-1" d="M158.82,111.95h0c.41,.03,.62,.21,.62,.55,0,.3-.23,.53-.8,.53-.18,0-.3-.02-.4-.04v-.37c.09,.03,.18,.05,.34,.05,.16,0,.34-.06,.34-.2,0-.12-.19-.23-.56-.23v-.24l.09-.2v-.02c-.79-.14-1.33-.77-1.33-1.66,0-1,.7-1.69,1.7-1.69,.51,0,1.05,.21,1.38,.61l-.51,.44c-.19-.22-.47-.37-.83-.37-.58,0-.97,.41-.97,1s.4,1.01,.97,1.01c.36,0,.66-.16,.83-.35l.52,.46c-.27,.3-.73,.55-1.31,.57l-.08,.15Z"/>
            <path class="cls-1" d="M164.05,108.47v3.28h-.72v-.44h0c-.24,.31-.59,.49-1.04,.49-.91,0-1.59-.66-1.59-1.68s.68-1.7,1.58-1.7c.42,0,.77,.15,1.01,.44h.01v-.39h.75Zm-2.42-.45l-.46-.21c.13-.43,.39-.74,.76-.74,.26,0,.42,.1,.57,.19,.13,.08,.25,.17,.39,.17,.16,0,.3-.13,.38-.34l.45,.15c-.13,.49-.4,.8-.75,.8-.24,0-.43-.11-.59-.21-.13-.08-.25-.15-.38-.15-.17,0-.3,.13-.39,.35Zm1.7,2.11c0-.58-.39-1.02-.93-1.02s-.94,.39-.94,1.02c0,.58,.39,.99,.94,.99,.51,0,.93-.4,.93-.99Z"/>
            <path class="cls-1" d="M164.8,110.11c0-.97,.69-1.69,1.72-1.69s1.72,.69,1.72,1.69-.71,1.69-1.72,1.69-1.72-.73-1.72-1.69Zm2.68,0c0-.6-.42-1.01-.95-1.01-.57,0-.96,.44-.96,1.01s.39,1,.96,1c.53,0,.95-.41,.95-1Z"/>
            <path class="cls-1" d="M174,106.8v4.95h-.72v-.44h-.01c-.24,.31-.6,.49-1.07,.49-.91,0-1.59-.66-1.59-1.68s.68-1.7,1.58-1.7c.43,0,.79,.15,1.04,.44h.02v-2.06h.75Zm-.72,3.33c0-.58-.39-1.02-.96-1.02-.53,0-.95,.39-.95,1.02,0,.58,.39,.99,.94,.99s.96-.4,.96-.99Z"/>
            <path class="cls-1" d="M177.95,110.37h-2.39c.1,.47,.45,.75,.93,.75,.38,0,.65-.18,.82-.39l.53,.45c-.28,.36-.74,.62-1.38,.62-.96,0-1.68-.67-1.68-1.69s.69-1.69,1.6-1.69c.97,0,1.59,.7,1.59,1.65,0,.12,0,.24-.02,.3Zm-2.38-.61h1.64c-.1-.4-.37-.66-.8-.66s-.73,.23-.84,.66Z"/>
            <path class="cls-1" d="M183.73,106.8v4.95h-.72v-.44h-.01c-.24,.31-.6,.49-1.07,.49-.91,0-1.59-.66-1.59-1.68s.68-1.7,1.58-1.7c.43,0,.79,.15,1.04,.44h.02v-2.06h.75Zm-.72,3.33c0-.58-.39-1.02-.96-1.02-.52,0-.94,.39-.94,1.02,0,.58,.39,.99,.94,.99s.96-.4,.96-.99Z"/>
            <path class="cls-1" d="M187.86,108.47v3.28h-.72v-.44h0c-.24,.31-.59,.49-1.04,.49-.91,0-1.59-.66-1.59-1.68s.68-1.7,1.58-1.7c.42,0,.77,.15,1.01,.44h.01v-.39h.75Zm-.72,1.66c0-.58-.39-1.02-.93-1.02s-.95,.39-.95,1.02c0,.58,.39,.99,.94,.99,.51,0,.93-.4,.93-.99Z"/>
            <path class="cls-1" d="M192,106.8v4.95h-.72v-.44h-.01c-.24,.31-.6,.49-1.07,.49-.91,0-1.59-.66-1.59-1.68s.68-1.7,1.58-1.7c.43,0,.79,.15,1.04,.44h.02v-2.06h.75Zm-.72,3.33c0-.58-.39-1.02-.96-1.02-.52,0-.94,.39-.94,1.02,0,.58,.39,.99,.94,.99s.96-.4,.96-.99Z"/>
            <path class="cls-1" d="M192.78,110.11c0-.97,.69-1.69,1.72-1.69s1.72,.69,1.72,1.69-.72,1.69-1.72,1.69-1.72-.73-1.72-1.69Zm2.68,0c0-.6-.42-1.01-.96-1.01-.57,0-.96,.44-.96,1.01s.39,1,.96,1c.53,0,.96-.41,.96-1Z"/>
            <path class="cls-1" d="M196.72,111.32l.38-.56c.26,.26,.54,.39,.95,.39,.29,0,.46-.13,.46-.32,0-.17-.22-.25-.65-.4-.54-.18-1-.43-1-1.07,0-.53,.49-.93,1.16-.93,.42,0,.79,.11,1.16,.41l-.38,.59c-.27-.25-.56-.35-.82-.35-.15,0-.36,.08-.36,.28,0,.16,.21,.28,.52,.4,.7,.28,1.14,.4,1.14,1.05,0,.55-.39,.99-1.22,.99-.53,0-.98-.17-1.33-.48Z"/>
          </g>
          <g>
            <polygon class="cls-1" points="150.33 56.65 150.33 31.56 147.29 30.16 147.29 55.25 150.33 56.65"/>
            <polygon class="cls-1" points="146.22 29.66 137.05 25.43 137.05 50.52 146.22 54.75 146.22 29.66"/>
            <rect class="cls-1" x="175.2" y="39.02" width="2.69" height="2.69" transform="translate(6.54 102.79) rotate(-33.04)"/>
            <path class="cls-1" d="M179,22.19c-3.6-5.54-11.02-7.11-16.56-3.51-5.54,3.6-7.11,11.02-3.51,16.56,3.6,5.54,11.02,7.11,16.56,3.51,5.54-3.6,7.11-11.02,3.51-16.56Zm-1.15,8.41c-.5,2.37-1.9,4.41-3.93,5.73-1.48,.96-3.19,1.47-4.94,1.47h0c-3.09,0-5.94-1.54-7.63-4.13-2.73-4.2-1.54-9.84,2.66-12.57,1.48-.96,3.19-1.47,4.94-1.47,3.09,0,5.94,1.54,7.63,4.13,1.32,2.03,1.78,4.46,1.27,6.83Z"/>
            <path class="cls-1" d="M178.67,41.27l-2.17,1.41c-.52,.34-.73,.94-.46,1.34l8.23,12.65c.26,.4,.89,.45,1.41,.12l2.17-1.41c.52-.34,.73-.94,.46-1.34l-8.23-12.65c-.26-.4-.89-.45-1.41-.12Z"/>
            <path class="cls-1" d="M157.26,36.34c-.44-.67-.8-1.38-1.11-2.1l-4.75-2.19v25.09l10.22,4.71v-21.28c-1.71-1.06-3.22-2.48-4.36-4.24Z"/>
            <path class="cls-1" d="M161.35,17.01c1.54-1,3.26-1.66,5.04-1.99l-4.11-1.82-25.23,11.18,9.37,4.32,9.38-4.61c1.01-2.9,2.93-5.38,5.55-7.08Z"/>
            <path class="cls-1" d="M165.5,23.25c.18,.32,.57,.46,.91,.31,.16-.07,.33-.14,.51-.2,2.34-.78,4.84,0,6.34,1.79,.19,.23,.5,.32,.78,.22h0c.48-.16,.66-.75,.33-1.14-1.87-2.24-4.99-3.23-7.92-2.24-.21,.07-.41,.15-.61,.23-.4,.17-.56,.64-.35,1.02h0Z"/>
            <g>
              <path class="cls-1" d="M179.16,38.25l.54,.82c.85,.09,1.61,.52,2.06,1.21l5.74,8.82V25.43l-4.62,2.13c.31,3.87-1,7.78-3.72,10.69Z"/>
              <path class="cls-1" d="M174.36,45.11c-.47-.72-.53-1.59-.27-2.38l-.54-.83c-1.46,.51-2.99,.8-4.56,.8-2.13,0-4.18-.5-6.04-1.39v20.55l17.16-7.92-5.74-8.83Z"/>
            </g>
            <path class="cls-1" d="M155.3,25.83c.03-.12,.06-.23,.09-.35l-7.72,3.79,3.28,1.52,4.05-1.99c0-.99,.09-1.98,.3-2.97Z"/>
            <path class="cls-1" d="M182.77,26.56l4.74-2.19-6.63-2.94c.99,1.61,1.62,3.35,1.89,5.12Z"/>
            <path class="cls-1" d="M155.04,29.96l-2.84,1.4,3.46,1.6c-.31-.97-.53-1.97-.62-2.99Z"/>
          </g>
        </g>
      </g>
      <g>
        <rect class="cls-8" width="99.27" height="126.66" rx="7.69" ry="7.69"/>
        <text class="cls-3" transform="translate(28.63 92.53)"><tspan class="cls-12" x="0" y="0">C</tspan><tspan x="6.39" y="0">OLE</tspan><tspan class="cls-9" x="23.77" y="0">T</tspan><tspan class="cls-4" x="28.42" y="0">A E</tspan><tspan class="cls-11" x="-7.52" y="10.89">R</tspan><tspan class="cls-10" x="-1.7" y="10.89">E</tspan><tspan class="cls-4" x="3.39" y="10.89">CIC</tspan><tspan class="cls-5" x="18.99" y="10.89">L</tspan><tspan class="cls-7" x="24.12" y="10.89">A</tspan><tspan x="30.04" y="10.89">GEM</tspan></text>
        <g>
          <g>
            <path class="cls-2" d="M69.59,41.03l4.63,8.02c.58,1.02,.93,2.24,.84,3.3-.85,4.29-2.84,5.78-6.92,5.87h-2.36l-6.49-11.24,10.31-5.95Z"/>
            <path class="cls-2" d="M57.46,59.17h8.86c3.14,0,6.15,.33,8.08-2.84v.03s-7.66,13.28-7.66,13.28c-.83,1.21-1.98,1.4-3.23,1.43h-6.04v4.47l-7.13-10.42,7.13-10.42v4.47Z"/>
          </g>
          <g>
            <path class="cls-2" d="M48.02,71.56h-9.26c-1.17,0-2.4-.31-3.28-.92-3.29-2.88-3.59-5.35-1.62-8.93l1.18-2.05h12.98s0,11.9,0,11.9Z"/>
            <path class="cls-2" d="M38.37,51.99l-4.43,7.67c-1.57,2.72-3.36,5.16-1.58,8.41h-.03s-7.67-13.29-7.67-13.29c-.63-1.32-.23-2.41,.38-3.51l.41-.71h0s2.61-4.52,2.61-4.52l-3.87-2.24,12.59-.96,5.46,11.38-3.87-2.24Z"/>
          </g>
          <g>
            <path class="cls-2" d="M32.45,37.77l4.63-8.02c.59-1.01,1.47-1.92,2.44-2.38,4.14-1.41,6.43-.43,8.54,3.06l1.18,2.05-6.49,11.24-10.31-5.95Z"/>
            <path class="cls-2" d="M54.22,39.2l-4.43-7.67c-1.57-2.72-2.79-5.49-6.5-5.57l.03-.02h15.33c1.46,.11,2.2,1.01,2.85,2.08l.41,.71h0s2.61,4.52,2.61,4.52l3.87-2.24-5.46,11.38-12.59-.96,3.87-2.24Z"/>
          </g>
        </g>
      </g>
    </g>
  </g>
</svg>