<svg xmlns="http://www.w3.org/2000/svg" xmlns:xlink="http://www.w3.org/1999/xlink" width="38.612" height="38.681" viewBox="0 0 38.612 38.681">
  <defs>
    <clipPath id="clip-path">
      <rect id="Retângulo_21" data-name="Retângulo 21" width="38.612" height="38.681" fill="#fff"/>
    </clipPath>
  </defs>
  <g id="icone_instagram" clip-path="url(#clip-path)">
    <path id="Caminho_85" data-name="Caminho 85" d="M38.521,28.169a10.376,10.376,0,0,1-10.383,10.35c-5.045.13-10.095.2-15.14.137a21.235,21.235,0,0,1-5.844-.828c-3.931-1.2-6.1-4.111-6.8-8.091A26.622,26.622,0,0,1,0,25.122c.006-4.9.032-9.8.165-14.7A10.353,10.353,0,0,1,10.455.16C15.5.036,20.549-.03,25.6.014a21.453,21.453,0,0,1,5.521.694A9.374,9.374,0,0,1,38.3,9.029c.437,3.4.31,16.2.219,19.14M3.361,19.275c.1,3.1.124,6.224.318,9.339a6.492,6.492,0,0,0,5.537,6.213,31.8,31.8,0,0,0,5.308.363c4.668-.005,9.339-.037,14-.2a6.449,6.449,0,0,0,5.094-2.669,8.533,8.533,0,0,0,1.533-5.191q.087-7.8,0-15.592a8.61,8.61,0,0,0-1.427-5.052,7.427,7.427,0,0,0-6.42-2.95c-5.689-.04-11.383-.024-17.069.148a6.632,6.632,0,0,0-6.565,6.467c-.19,3.027-.215,6.065-.314,9.123m6.064.047a9.915,9.915,0,1,1,9.987,9.935,9.822,9.822,0,0,1-9.987-9.935m16.369-.3a6.472,6.472,0,0,0-12.931.591c.343,3.749,3.355,6.51,6.77,6.2a6.473,6.473,0,0,0,6.161-6.8m6.233-10a2.4,2.4,0,0,0-2.334-2.356,2.335,2.335,0,0,0-2.3,2.368,2.251,2.251,0,0,0,2.313,2.239,2.323,2.323,0,0,0,2.321-2.251" transform="translate(0 0)" fill="#fff"/>
  </g>
</svg>
