<svg id="icone_destruicao_de_dados" xmlns="http://www.w3.org/2000/svg" width="125.259" height="125.259" viewBox="0 0 125.259 125.259">
  <path id="Caminho_19" data-name="Caminho 19" d="M34.282,68.566A62.629,62.629,0,1,0-28.346,5.938,62.629,62.629,0,0,0,34.282,68.566" transform="translate(28.347 56.693)" fill="#0f3b76"/>
  <path id="icone_destruicao_de_dados-2" data-name="icone_destruicao_de_dados" d="M13.423,30.525l-2.43,3.2a1.518,1.518,0,0,1-.208.223,1.232,1.232,0,0,1-.115.126A4.506,4.506,0,0,1,4.3,27.7a1.191,1.191,0,0,1,.124-.11,1.609,1.609,0,0,1,.179-.168,18.773,18.773,0,0,1-5.736-5.21H-5.24V32.639A4.737,4.737,0,0,0-.507,37.372h20.5v-6.71a28.422,28.422,0,0,1-6.571-.137M-.9,34.8a1.6,1.6,0,0,1-1.6-1.606,1.6,1.6,0,0,1,1.6-1.6A1.606,1.606,0,0,1,.7,33.2,1.608,1.608,0,0,1-.9,34.8M34.5-14.391a1.69,1.69,0,0,0,1.69-1.688,1.69,1.69,0,0,0-1.69-1.69,1.689,1.689,0,0,0-1.69,1.69,1.688,1.688,0,0,0,1.69,1.688ZM5.383,28.552c-.04.035-.084.064-.126.1A3.155,3.155,0,1,0,9.72,33.11c.038-.04.064-.084.1-.126a.577.577,0,0,0,.1-.082L20.874,18.468a.689.689,0,0,0-.966-.968L5.474,28.454a.63.63,0,0,0-.091.1M-2.076-14.393a1.689,1.689,0,0,0,1.69-1.69,1.69,1.69,0,0,0-1.69-1.69,1.692,1.692,0,0,0-1.69,1.69,1.687,1.687,0,0,0,1.688,1.692h0Zm18.287.837a20.081,20.081,0,0,0-8.223,38.4l4.507-3.42a15.361,15.361,0,1,1,7.934-.139L16.393,26.61a20.083,20.083,0,0,0-.181-40.165ZM33.067-25.239H-.644A10.466,10.466,0,0,0-11.1-14.784V32.573A10.468,10.468,0,0,0-.644,43.03H33.065A10.465,10.465,0,0,0,43.52,32.573V-14.782A10.466,10.466,0,0,0,33.067-25.237ZM38.79,32.573A5.727,5.727,0,0,1,33.067,38.3H-.644a5.729,5.729,0,0,1-5.725-5.725V-14.782A5.733,5.733,0,0,1-.644-20.506H33.067a5.73,5.73,0,0,1,5.722,5.725Zm-4.291.115a1.69,1.69,0,1,0,1.69,1.69,1.69,1.69,0,0,0-1.69-1.69ZM23.156,6.53a6.944,6.944,0,1,0-6.944,6.944A6.944,6.944,0,0,0,23.156,6.53ZM16.212,8.742A2.213,2.213,0,1,1,18.426,6.53a2.213,2.213,0,0,1-2.214,2.212Z" transform="translate(46.419 53.735)" fill="#fff"/>
  <path id="Caminho_21" data-name="Caminho 21" d="M0,68.566H125.259V-56.693H0Z" transform="translate(0 56.693)" fill="none"/>
</svg>
