<svg xmlns="http://www.w3.org/2000/svg" width="125.259" height="125.259" viewBox="0 0 125.259 125.259">
  <g id="icone_descaracterizacao" transform="translate(-778.932 -1471)">
    <path id="Caminho_22" data-name="Caminho 22" d="M34.282,68.566A62.629,62.629,0,1,0-28.346,5.938,62.629,62.629,0,0,0,34.282,68.566" transform="translate(807.279 1527.693)" fill="#0f3b76"/>
    <path id="Caminho_26" data-name="Caminho 26" d="M0,68.566H125.259V-56.693H0Z" transform="translate(778.932 1527.693)" fill="none"/>
    <g id="icone_descaracterizacao-2" data-name="icone_descaracterizacao" transform="translate(798.049 1502.623)">
      <path id="icone_descaracterizacao-3" data-name="icone_descaracterizacao" d="M46.057,0H-35.2a2.893,2.893,0,0,0-2.886,2.886V56.192A2.9,2.9,0,0,0-35.2,59.08H-1.644v3.891h-11.5v5.307H24V62.971H12.5V59.08H46.057a2.9,2.9,0,0,0,2.886-2.888V2.886A2.893,2.893,0,0,0,46.057,0M8.429,54.586a3,3,0,1,1-3-3,3,3,0,0,1,3,3m-33.862-5.113h-9.286V3.363h80.3V49.473H-25.433Z" transform="translate(38.082 0)" fill="#fff"/>
      <path id="Caminho_24" data-name="Caminho 24" d="M9.16,18.332A16.757,16.757,0,0,1-7.574,1.589a16.739,16.739,0,1,1,33.477,0A16.761,16.761,0,0,1,9.16,18.332m0-30.645A13.91,13.91,0,0,0-4.728,1.589a13.894,13.894,0,1,0,27.788,0,13.915,13.915,0,0,0-13.9-13.9" transform="translate(41.272 23.078)" fill="#fff"/>
      <path id="Caminho_25" data-name="Caminho 25" d="M4.329,7.313A4.014,4.014,0,0,1,1.463,6.058L-3.579.844l2.046-1.977,5.04,5.214c.411.424.941.462,1.107.3s.148-.692-.265-1.118L-2.572-4.1-.5-6.047,6.408,1.3a3.644,3.644,0,0,1,.183,5.124,3.215,3.215,0,0,1-2.262.888" transform="translate(64.268 39.336)" fill="#fff"/>
      <path id="Caminho_27" data-name="Caminho 27" d="M36.643-19.355H33.8V-34.638h2.846Z" transform="translate(21.758 51.744)" fill="#fff"/>
      <path id="Caminho_28" data-name="Caminho 28" d="M34.876-22.551H32.03V-34.639h2.846Z" transform="translate(19.621 51.743)" fill="#fff"/>
      <path id="Caminho_29" data-name="Caminho 29" d="M33.109-22.551H30.263V-34.639h2.846Z" transform="translate(17.484 51.743)" fill="#fff"/>
      <path id="Caminho_30" data-name="Caminho 30" d="M31.342-22.551H28.5V-34.639h2.846Z" transform="translate(15.347 51.743)" fill="#fff"/>
      <path id="Caminho_31" data-name="Caminho 31" d="M29.575-22.551H26.729V-34.639h2.846Z" transform="translate(13.21 51.743)" fill="#fff"/>
      <path id="Caminho_32" data-name="Caminho 32" d="M24.788-26.57H21.942v-8.069h2.846Z" transform="translate(7.42 51.743)" fill="#fff"/>
      <path id="Caminho_33" data-name="Caminho 33" d="M23.05-26.57H20.2v-8.069H23.05Z" transform="translate(5.318 51.743)" fill="#fff"/>
      <path id="Caminho_34" data-name="Caminho 34" d="M21.485-23.665H18.639V-34.639h2.846Z" transform="translate(3.426 51.743)" fill="#fff"/>
      <path id="Caminho_35" data-name="Caminho 35" d="M9.192,13.882H-6.177A1.422,1.422,0,0,1-7.6,12.459V-10.055a1.423,1.423,0,0,1,1.423-1.423H12.152v2.846H-4.754V11.036H9.192Z" transform="translate(24.131 20.996)" fill="#fff"/>
    </g>
    <path id="Caminho_36" data-name="Caminho 36" d="M0,68.566H125.259V-56.693H0Z" transform="translate(778.932 1527.693)" fill="none"/>
  </g>
</svg>
