<svg xmlns="http://www.w3.org/2000/svg" xmlns:xlink="http://www.w3.org/1999/xlink" width="38.574" height="38.881" viewBox="0 0 38.574 38.881">
  <defs>
    <clipPath id="clip-path">
      <rect id="Retângulo_20" data-name="Retângulo 20" width="38.575" height="38.881" fill="#fff"/>
    </clipPath>
  </defs>
  <g id="icone_whats" clip-path="url(#clip-path)">
    <path id="Caminho_83" data-name="Caminho 83" d="M0,38.881A3.091,3.091,0,0,1,.152,38.4q1.542-4.659,3.12-9.317a.787.787,0,0,0-.065-.738A18.582,18.582,0,0,1,.7,18.127,18.847,18.847,0,0,1,16.256.322,18.352,18.352,0,0,1,33.209,5.777a18.094,18.094,0,0,1,5.257,11.2,18.889,18.889,0,0,1-9.773,18.589,18.5,18.5,0,0,1-8.008,2.276,18.535,18.535,0,0,1-9.8-2.1.85.85,0,0,0-.783-.064c-3.212,1.032-6.451,2.055-9.645,3.1C.326,38.8.2,38.826,0,38.881m4.888-4.838c.281-.082.438-.12.59-.165,1.668-.553,3.359-1.088,5.019-1.641a.88.88,0,0,1,.742.083,15.475,15.475,0,0,0,10.3,2.313,15.169,15.169,0,0,0,8.75-4.027,15.283,15.283,0,0,0,4.885-14.423A15.555,15.555,0,0,0,28.126,5.621a15.849,15.849,0,0,0-7.691-2.47,15.021,15.021,0,0,0-9.373,2.543A15.526,15.526,0,0,0,3.806,18.91a15.1,15.1,0,0,0,2.76,8.912.944.944,0,0,1,.133.93c-.414,1.18-.806,2.36-1.221,3.549-.175.544-.35,1.087-.59,1.741" transform="translate(0 0.001)" fill="#fff" fill-rule="evenodd"/>
    <path id="Caminho_84" data-name="Caminho 84" d="M41.391,45.424a5.274,5.274,0,0,1,1.747-3.889,1.9,1.9,0,0,1,1.364-.507C45.866,41,45.866,41,46.423,42.272c.4,1.005.839,2.009,1.231,3a.872.872,0,0,1-.023.931c-.346.489-.71,1.005-1.111,1.466a.771.771,0,0,0-.1,1.05A12.58,12.58,0,0,0,52.695,54.1a.693.693,0,0,0,.894-.193c.457-.562.94-1.116,1.373-1.686.35-.452.526-.562,1.028-.332,1.319.59,2.585,1.216,3.862,1.843.36.176.336.507.336.829-.1,2.019-1.014,3.023-3.336,3.76a5.618,5.618,0,0,1-3.414-.295,17.5,17.5,0,0,1-9.843-7.373,12.06,12.06,0,0,1-1.971-3.806c-.1-.47-.143-.949-.231-1.419" transform="translate(-30.918 -30.642)" fill="#fff" fill-rule="evenodd"/>
  </g>
</svg>
