<svg xmlns="http://www.w3.org/2000/svg" xmlns:xlink="http://www.w3.org/1999/xlink" width="38.901" height="38.97" viewBox="0 0 38.901 38.97">
  <defs>
    <clipPath id="clip-path">
      <rect id="Retângulo_24" data-name="Retângulo 24" width="38.901" height="38.97" fill="#fff"/>
    </clipPath>
  </defs>
  <g id="icone_telefone" clip-path="url(#clip-path)">
    <path id="Caminho_87" data-name="Caminho 87" d="M38.81,28.379a10.453,10.453,0,0,1-10.46,10.427c-5.083.131-10.17.205-15.254.138a21.374,21.374,0,0,1-5.888-.835C3.247,36.9,1.06,33.968.357,29.958A26.822,26.822,0,0,1,0,25.31C.006,20.372.032,15.432.166,10.5A10.431,10.431,0,0,1,10.533.161C15.616.036,20.7-.031,25.787.013a21.625,21.625,0,0,1,5.562.7A9.445,9.445,0,0,1,38.59,9.1c.44,3.425.312,16.318.22,19.283M3.386,19.419c.1,3.123.125,6.271.32,9.408a6.541,6.541,0,0,0,5.578,6.259,32.04,32.04,0,0,0,5.348.366c4.7-.005,9.409-.037,14.108-.2a6.5,6.5,0,0,0,5.132-2.689,8.6,8.6,0,0,0,1.544-5.23q.087-7.854,0-15.709a8.675,8.675,0,0,0-1.437-5.091,7.484,7.484,0,0,0-6.469-2.972c-5.732-.04-11.468-.024-17.2.149A6.682,6.682,0,0,0,3.7,10.228c-.191,3.049-.216,6.109-.316,9.191m5.936-5.271a2.311,2.311,0,0,1,.533-1.475,13.058,13.058,0,0,1,1.329-1.451,2.449,2.449,0,0,1,3.791,1.3c.253.819.487,1.647.673,2.484a2.178,2.178,0,0,1-.72,2.289,1.311,1.311,0,0,0-.374,1.814,9.656,9.656,0,0,0,5.779,5.453.748.748,0,0,0,.964-.225,2.346,2.346,0,0,1,2.211-1.083,13.312,13.312,0,0,1,3.334.931,2.359,2.359,0,0,1,.552,3.932,2.249,2.249,0,0,0-.392.394,2.967,2.967,0,0,1-2.96,1.083A15.907,15.907,0,0,1,9.772,17.539c-.183-.729-.293-1.477-.432-2.217a1.033,1.033,0,0,1-.018-.194Zm10.129-4.8v1.194c5.429.592,8.36,3.563,8.936,8.911a.333.333,0,0,0,.08.017q.557.005,1.113.007V18.366a1.7,1.7,0,0,1-.1-.277A9.972,9.972,0,0,0,22.32,9.767c-.568-.189-1.17-.279-1.756-.415H19.45m5.1,10.09h1.21A6.227,6.227,0,0,0,19.472,13.2v1.178a5.2,5.2,0,0,1,5.082,5.065m-3.819,0H21.96a2.427,2.427,0,0,0-2.483-2.46V18.22a1.327,1.327,0,0,1,1.258,1.226" transform="translate(0 0)" fill="#fff"/>
  </g>
</svg>
