<svg xmlns="http://www.w3.org/2000/svg" xmlns:xlink="http://www.w3.org/1999/xlink" width="38.612" height="38.881" viewBox="0 0 38.612 38.881">
  <defs>
    <clipPath id="clip-path">
      <rect id="Retângulo_19" data-name="Retângulo 19" width="38.612" height="38.881" fill="#fff"/>
    </clipPath>
  </defs>
  <g id="icone_linkedin" clip-path="url(#clip-path)">
    <path id="Caminho_82" data-name="Caminho 82" d="M38.521,28.315a10.4,10.4,0,0,1-10.383,10.4c-5.045.13-10.095.2-15.14.138a21.134,21.134,0,0,1-5.844-.833c-3.931-1.2-6.1-4.133-6.8-8.133A26.894,26.894,0,0,1,0,25.253c.006-4.927.032-9.856.165-14.78A10.38,10.38,0,0,1,10.455.161C15.5.037,20.549-.03,25.6.014a21.347,21.347,0,0,1,5.521.7A9.408,9.408,0,0,1,38.3,9.076c.437,3.418.31,16.282.219,19.24M3.361,19.375c.1,3.116.123,6.257.318,9.387a6.514,6.514,0,0,0,5.537,6.245,31.644,31.644,0,0,0,5.308.365c4.668-.005,9.339-.037,14-.2a6.438,6.438,0,0,0,5.094-2.683,8.61,8.61,0,0,0,1.533-5.218q.087-7.836,0-15.673A8.687,8.687,0,0,0,33.729,6.52a7.411,7.411,0,0,0-6.42-2.965c-5.689-.04-11.383-.024-17.069.149a6.649,6.649,0,0,0-6.565,6.5c-.19,3.043-.215,6.1-.313,9.17M30.431,21.14v8.27h-4.77V21.694c0-1.938-.689-3.26-2.416-3.26A2.61,2.61,0,0,0,20.8,20.187a3.3,3.3,0,0,0-.158,1.169v8.054H15.87s.064-13.068,0-14.421h4.771v2.044c-.01.016-.023.032-.031.047h.031v-.047a4.733,4.733,0,0,1,4.3-2.382c3.139,0,5.492,2.06,5.492,6.489M10.88,8.037a2.5,2.5,0,1,0-.063,4.984h.032a2.5,2.5,0,1,0,.031-4.984M8.464,29.409h4.769V14.989H8.464Z" transform="translate(0 0)" fill="#fff"/>
  </g>
</svg>
