<?xml version="1.0" encoding="utf-8"?>
<!-- Generator: Adobe Illustrator 27.0.0, SVG Export Plug-In . SVG Version: 6.00 Build 0)  -->
<svg version="1.1" id="Layer_2_00000129185093158683631460000003530075960430321838_"
	 xmlns="http://www.w3.org/2000/svg" xmlns:xlink="http://www.w3.org/1999/xlink" x="0px" y="0px" viewBox="0 0 36 36"
	 style="enable-background:new 0 0 36 36;" xml:space="preserve">
<style type="text/css">
	.st0{fill:#FFFFFF;}
</style>
<g id="Layer_1-2">
	<path class="st0" d="M23.8,18l11-11c1.6-1.6,1.6-4.2,0-5.8s-4.2-1.6-5.8,0l-11,11L7,1.2c-1.6-1.6-4.2-1.6-5.8,0s-1.6,4.2,0,5.8
		l11,11l-11,11c-1.6,1.6-1.6,4.2,0,5.8s4.2,1.6,5.8,0l11-11l11,11c1.6,1.6,4.2,1.6,5.8,0s1.6-4.2,0-5.8L23.8,18z"/>
</g>
</svg>
