<svg id="icone_certificacoes" xmlns="http://www.w3.org/2000/svg" width="125.259" height="125.259" viewBox="0 0 125.259 125.259">
  <path id="Caminho_40" data-name="Caminho 40" d="M34.282,68.566A62.629,62.629,0,1,0-28.346,5.938,62.629,62.629,0,0,0,34.282,68.566" transform="translate(28.347 56.693)" fill="#0f3b76"/>
  <path id="icone_certificacoes-2" data-name="icone_certificacoes" d="M2.624,38.063a4.848,4.848,0,0,1-4.794-4.9h0V-26.574a4.848,4.848,0,0,1,4.792-4.9H47.659a4.846,4.846,0,0,1,4.792,4.9V33.167a4.845,4.845,0,0,1-4.792,4.9ZM1.058-26.574V33.167a1.585,1.585,0,0,0,1.566,1.6H47.659a1.582,1.582,0,0,0,1.564-1.6V-26.574a1.585,1.585,0,0,0-1.564-1.6H2.624a1.587,1.587,0,0,0-1.566,1.6M34.577,10.291h6.71V28.342h-6.71Zm0,18.053M25.914,15.77h6.71V28.344h-6.71Zm0,12.574M17.253,12.317h6.71V28.344h-6.71Zm0,16.027M8.59,19.572H15.3v8.771H8.59Zm0,8.771M7.775,14.8,20.406,2.4,29.067,9.7,39.948-.964,41.53.726l-12.348,12.1L20.521,5.529,9.357,16.479ZM8.252-4.148A1.546,1.546,0,0,1,6.637-5.617,1.546,1.546,0,0,1,8.252-7.087H25.865A1.547,1.547,0,0,1,27.48-5.617a1.548,1.548,0,0,1-1.615,1.469Zm0-6.818a1.547,1.547,0,0,1-1.615-1.469A1.547,1.547,0,0,1,8.252-13.9H42.036a1.545,1.545,0,0,1,1.613,1.469,1.545,1.545,0,0,1-1.613,1.469Zm0-6.82a1.544,1.544,0,0,1-1.615-1.467,1.544,1.544,0,0,1,1.615-1.469H42.036a1.542,1.542,0,0,1,1.613,1.469,1.542,1.542,0,0,1-1.613,1.467Z" transform="translate(37.488 59.334)" fill="#fff"/>
  <path id="Caminho_42" data-name="Caminho 42" d="M0,68.566H125.259V-56.693H0Z" transform="translate(0 56.693)" fill="none"/>
</svg>
