<?xml version="1.0" encoding="UTF-8"?>
<svg id="Layer_2" data-name="Layer 2" xmlns="http://www.w3.org/2000/svg" viewBox="0 0 365.37 289.45">
  <defs>
    <style>
      .cls-1 {
        fill: #223f80;
      }
    </style>
  </defs>
  <g id="Layer_1-2" data-name="Layer 1">
    <path class="cls-1" d="M259.9,206.43c5.12,0,10.12,.52,15.07,1.47-20.27,41.73-59.7,71.64-105.79,79.49-8.13,1.35-16.38,2.06-24.47,2.06C64.9,289.45,0,224.52,0,144.74S64.9,0,144.7,0c8.73,0,17.49,.79,25.98,2.34,46.09,8.33,85.2,38.75,104.96,80.72-4.68,.91-9.44,1.35-14.28,1.35-16.34,0-31.93-5.08-45.14-14.68-3.05-2.98-6.31-5.71-9.72-8.25-17.93-13.37-39.31-20.43-61.8-20.43-57.16,0-103.65,46.53-103.65,103.69s46.49,103.65,103.65,103.65c22.45,0,43.79-7.06,61.76-20.39,2.86-2.14,5.67-4.44,8.33-6.9,13.17-9.6,28.72-14.68,45.1-14.68Zm72.18-94.48c-3.51,0-6.95,.54-10.23,1.59l-.25,.08-.26,.05c-6.81,1.51-13.46,3.63-15.05,4.16-3.45,1.29-34.3,12.62-58.19,12.62-26.5,0-46.92-10.19-68.97-22.52-16.68-9.31-29.71-10.31-34.64-10.31-.01,0-1.75,.02-1.75,.02-.43-.02-1.41-.05-1.84-.05-26.38,0-47.86,21.1-47.86,47.04s21.46,47,48.16,47l.51,.06c.39,.05,1.35,.14,2.81,.14,4.84,0,17.9-1.01,34.61-10.33,22.05-12.32,42.46-22.52,68.97-22.52,23.86,0,54.76,11.33,58.5,12.73,1.57,.52,9.76,3.15,17.56,4.64,2.75,.52,5.11,.83,7.03,.91l.89,.03c18.35,0,33.29-14.65,33.29-32.67s-14.94-32.69-33.29-32.69Z"/>
  </g>
</svg>