<svg xmlns="http://www.w3.org/2000/svg" xmlns:xlink="http://www.w3.org/1999/xlink" width="38.901" height="38.97" viewBox="0 0 38.901 38.97">
  <defs>
    <clipPath id="clip-path">
      <rect id="Retângulo_25" data-name="Retângulo 25" width="38.901" height="38.97" fill="none"/>
    </clipPath>
  </defs>
  <g id="icone_email" clip-path="url(#clip-path)">
    <path id="Caminho_88" data-name="Caminho 88" d="M38.81,28.379a10.454,10.454,0,0,1-10.46,10.427c-5.083.131-10.17.205-15.253.138a21.387,21.387,0,0,1-5.888-.835C3.247,36.9,1.06,33.968.357,29.958A26.872,26.872,0,0,1,0,25.31C.006,20.372.032,15.432.167,10.5A10.43,10.43,0,0,1,10.533.16C15.616.036,20.7-.031,25.787.013a21.613,21.613,0,0,1,5.562.7A9.445,9.445,0,0,1,38.59,9.1c.44,3.425.312,16.318.22,19.283M3.386,19.418c.1,3.123.124,6.271.32,9.409a6.541,6.541,0,0,0,5.578,6.26,32.07,32.07,0,0,0,5.348.366c4.7-.005,9.409-.037,14.109-.2a6.5,6.5,0,0,0,5.132-2.689,8.6,8.6,0,0,0,1.544-5.23q.087-7.853,0-15.709a8.673,8.673,0,0,0-1.437-5.09,7.483,7.483,0,0,0-6.468-2.972c-5.732-.04-11.468-.024-17.2.15A6.682,6.682,0,0,0,3.7,10.227c-.191,3.05-.216,6.11-.316,9.191M10.934,13.3a1.266,1.266,0,0,0-.565.075q-.113.075-.038.169a2.475,2.475,0,0,0,.377.32,2.206,2.206,0,0,1,.226.188L19.45,20.54,27.967,14.1l.188-.188a4.411,4.411,0,0,0,.4-.32q.094-.094-.019-.188a1.041,1.041,0,0,0-.565-.094ZM9.8,14.812v9.571a1.384,1.384,0,0,0,.339.848.917.917,0,0,0,.678.433H28.08a.915.915,0,0,0,.678-.433,1.383,1.383,0,0,0,.339-.848V14.812L19.45,22.2Z" transform="translate(0 0.001)" fill="#fff"/>
  </g>
</svg>
