<svg id="icoine_reciclagem" xmlns="http://www.w3.org/2000/svg" width="125.003" height="125.004" viewBox="0 0 125.003 125.004">
  <path id="Caminho_54" data-name="Caminho 54" d="M34.155,68.31a62.5,62.5,0,1,0-62.5-62.5,62.5,62.5,0,0,0,62.5,62.5" transform="translate(28.347 56.693)" fill="#0f3b76"/>
  <path id="Caminho_56" data-name="Caminho 56" d="M0,68.31H125v-125H0Z" transform="translate(0 56.693)" fill="none"/>
  <path id="icone_reciclagem" d="M26.412,43.246l-9.907-6.454a1.394,1.394,0,0,1-.41-1.874,1.313,1.313,0,0,1,.41-.428l9.869-6.441a1.272,1.272,0,0,1,1.795.439,1.41,1.41,0,0,1,.194.712v1.925a1.333,1.333,0,0,0,1.3,1.36h9.217c2.891,0,5.118-.009,7.221-.029a12.267,12.267,0,0,0,3.636-.549,4.068,4.068,0,0,0,2.525-2.088,4.488,4.488,0,0,0,.082-3.442,20.867,20.867,0,0,0-1.638-3.557c-1.2-2.121-3.872-6.725-5.153-8.932A1.392,1.392,0,0,1,46,12.024s.007,0,.009,0l3.071-1.892a1.272,1.272,0,0,1,1.779.478c.615,1.089,1.466,2.6,1.834,3.246,1.323,2.335,2.69,4.752,4,7.142,1.938,3.55,2.487,6.776,1.678,9.86-1.054,4.037-3.81,6.5-8.427,7.547a21.88,21.88,0,0,1-4.516.421c-2.009.02-4.214.029-6.937.029H29.7a1.334,1.334,0,0,0-1.3,1.36V42.1a1.332,1.332,0,0,1-1.3,1.36,1.235,1.235,0,0,1-.679-.212M-9.036,38.818a20.513,20.513,0,0,1-5.223-.673,10.146,10.146,0,0,1-6.542-5.14,11.747,11.747,0,0,1-.41-9.025,20.692,20.692,0,0,1,1.466-3.349c2.015-3.731,4.088-7.512,6.092-11.168q1.207-2.2,2.41-4.4c.157-.282.3-.567.463-.875l.232-.443A1.4,1.4,0,0,0-11,1.943l-.5-.326a1.394,1.394,0,0,1-.408-1.874A1.305,1.305,0,0,1-11.47-.7l8.414-5.166a1.272,1.272,0,0,1,1.779.5A1.387,1.387,0,0,1-1.1-4.7V5.9A1.331,1.331,0,0,1-2.41,7.253a1.278,1.278,0,0,1-.681-.205l-.417-.273A1.272,1.272,0,0,0-5.3,7.211l-.02.035L-6.776,9.861-9.1,14.039q-2.834,5.09-5.669,10.178c-1.246,2.231-1.519,4.106-.816,5.565s2.28,2.328,4.69,2.608a16.376,16.376,0,0,0,1.861.082H8.8a1.332,1.332,0,0,1,1.3,1.36v3.654a1.332,1.332,0,0,1-1.3,1.36c-2.641,0-7.693.018-9.234.018-3.356,0-6.088-.013-8.6-.046M40.669,1.683,31.951-3.538A1.391,1.391,0,0,1,31.477-5.4a1.315,1.315,0,0,1,.439-.474l.692-.445a1.394,1.394,0,0,0,.441-1.843l-.571-1.019c-.386-.688-.758-1.36-1.138-2.022q-.979-1.73-1.96-3.457c-1.9-3.351-3.863-6.82-5.832-10.207a17.931,17.931,0,0,0-2.485-3.36,3.784,3.784,0,0,0-2.739-1.341,3.782,3.782,0,0,0-2.619,1.193A15.92,15.92,0,0,0,13.1-25.06c-1.394,2.344-5.164,8.87-6.7,11.525a1.27,1.27,0,0,1-1.766.47L1.656-14.878a1.4,1.4,0,0,1-.467-1.861C2.741-19.5,6.361-25.92,7.94-28.535a19.5,19.5,0,0,1,3.627-4.5,10.258,10.258,0,0,1,6.787-2.853,10.207,10.207,0,0,1,7.23,3.371,21.79,21.79,0,0,1,3.228,4.33c2.148,3.678,4.269,7.464,6.319,11.126q1.23,2.2,2.463,4.388c.141.249.282.5.441.772l.249.437A1.272,1.272,0,0,0,40.072-11h0l.569-.359a1.271,1.271,0,0,1,1.788.463,1.421,1.421,0,0,1,.187.7V.506a1.333,1.333,0,0,1-1.3,1.36,1.245,1.245,0,0,1-.646-.183" transform="translate(44.099 54.031)" fill="#fff"/>
</svg>
