<svg xmlns="http://www.w3.org/2000/svg" xmlns:xlink="http://www.w3.org/1999/xlink" width="38.612" height="38.681" viewBox="0 0 38.612 38.681">
  <defs>
    <clipPath id="clip-path">
      <rect id="Retângulo_22" data-name="Retângulo 22" width="38.612" height="38.681" fill="#fff"/>
    </clipPath>
  </defs>
  <g id="icone_facebook" clip-path="url(#clip-path)">
    <path id="Caminho_86" data-name="Caminho 86" d="M38.521,28.169A10.376,10.376,0,0,1,28.138,38.518c-5.045.13-10.095.2-15.14.138a21.228,21.228,0,0,1-5.844-.829c-3.931-1.2-6.1-4.111-6.8-8.091A26.647,26.647,0,0,1,0,25.122c.006-4.9.032-9.8.165-14.7A10.353,10.353,0,0,1,10.455.16C15.5.036,20.549-.03,25.595.013a21.454,21.454,0,0,1,5.521.694A9.374,9.374,0,0,1,38.3,9.028c.437,3.4.31,16.2.219,19.14M3.361,19.274c.1,3.1.124,6.225.318,9.339a6.492,6.492,0,0,0,5.537,6.213,31.775,31.775,0,0,0,5.308.363c4.668-.005,9.339-.037,14-.2a6.449,6.449,0,0,0,5.094-2.669,8.532,8.532,0,0,0,1.532-5.191q.087-7.8,0-15.592a8.607,8.607,0,0,0-1.426-5.052,7.428,7.428,0,0,0-6.421-2.95c-5.689-.04-11.383-.024-17.069.148a6.632,6.632,0,0,0-6.565,6.467c-.19,3.027-.215,6.064-.314,9.122m12.6.074v10.99h4.963V19.346H23.89c.136-1.238.27-2.465.406-3.7H20.923v-.1c0-.706,0-1.411,0-2.117a3.94,3.94,0,0,1,.042-.561.822.822,0,0,1,.509-.683,2.218,2.218,0,0,1,.857-.144c.709-.005,1.418,0,2.127,0h.118V8.344h-.113c-.723,0-1.445-.005-2.167,0-.745.007-1.491.011-2.236.043a5.124,5.124,0,0,0-1.651.357,3.448,3.448,0,0,0-1.92,1.738,5.656,5.656,0,0,0-.523,2.385c-.021.883-.007,1.767-.008,2.651v.126H14.034v3.7Z" transform="translate(0 0)" fill="#fff"/>
  </g>
</svg>
