<svg id="icone_aquisicao_de_equipamentos" xmlns="http://www.w3.org/2000/svg" width="125.259" height="125.259" viewBox="0 0 125.259 125.259">
  <path id="Caminho_16" data-name="Caminho 16" d="M34.282,68.566A62.629,62.629,0,1,0-28.346,5.938,62.629,62.629,0,0,0,34.282,68.566" transform="translate(28.347 56.693)" fill="#0f3b76"/>
  <path id="icone_aquisicao" d="M31.531,25.839A2.394,2.394,0,0,0,33.8,24.111l9.2-30a2.568,2.568,0,0,0-.345-2.218,2.356,2.356,0,0,0-1.927-1.016H-8.422l-2.123-6.164a2.436,2.436,0,0,0-1.376-1.471L-22.81-21.2a2.355,2.355,0,0,0-3.06,1.323c-.009.027-.02.053-.031.082a2.512,2.512,0,0,0,1.352,3.217l9.878,4.026L-2.591,22.5l-4.574,9.2a2.569,2.569,0,0,0,.082,2.43,2.365,2.365,0,0,0,2.037,1.191h.4A7.4,7.4,0,0,0-4.958,36a8.151,8.151,0,0,0,0,6.113A7.825,7.825,0,0,0-3.34,44.6a7.485,7.485,0,0,0,2.4,1.681,7.276,7.276,0,0,0,5.877,0,7.461,7.461,0,0,0,2.4-1.681,7.825,7.825,0,0,0,1.617-2.494,8.151,8.151,0,0,0,0-6.113c-.1-.232-.2-.46-.314-.683h12.2a7.4,7.4,0,0,0-.314.683,8.151,8.151,0,0,0,0,6.113A7.825,7.825,0,0,0,22.143,44.6a7.485,7.485,0,0,0,2.4,1.681,7.282,7.282,0,0,0,5.879,0,7.509,7.509,0,0,0,2.4-1.681,7.781,7.781,0,0,0,1.615-2.494,8.151,8.151,0,0,0,0-6.113c-.093-.232-.2-.46-.314-.683h1.951a2.483,2.483,0,0,0,0-4.962h-37.2l2.24-4.509ZM19.3,20.877H12.187L11.158,10.4h9.224ZM25.833-4.165H37.472L34.255,6.314h-9.5ZM24.335,10.4h8.672L29.792,20.879H23.261ZM21.882-4.165,20.8,6.314H10.758L9.728-4.165ZM-3.1,6.314-6.71-4.165H5.778L6.807,6.314Zm8.716,32.73a3.623,3.623,0,1,1-4.072-3.736H2.45a3.719,3.719,0,0,1,3.166,3.736m25.479,0a3.623,3.623,0,1,1-4.072-3.736h.906A3.719,3.719,0,0,1,31.1,39.045M-1.692,10.4h8.9l1.03,10.479H1.92Z" transform="translate(48.935 49.86)" fill="#fff"/>
  <path id="Caminho_18" data-name="Caminho 18" d="M0,68.566H125.259V-56.693H0Z" transform="translate(0 56.693)" fill="none"/>
</svg>
