<svg id="icone_logistica_reversa" xmlns="http://www.w3.org/2000/svg" width="125.259" height="125.259" viewBox="0 0 125.259 125.259">
  <g id="Grupo_112" data-name="Grupo 112" transform="translate(0)">
    <path id="Caminho_37" data-name="Caminho 37" d="M34.282,68.566A62.629,62.629,0,1,0-28.346,5.938,62.629,62.629,0,0,0,34.282,68.566" transform="translate(28.347 56.693)" fill="#0f3b76"/>
    <path id="icone_logistica_reversa-2" data-name="icone_logistica_reversa" d="M23.59,35.957a1.716,1.716,0,0,1-1.659-1.445A1.683,1.683,0,0,1,23.1,32.669a18.638,18.638,0,0,0,7.351-4.085C26.964,25.942,18.522,18.474,18,7.716c-.444-9.293,5.15-18.519,16.626-27.423,3.332-2.93,6.065-6.666,5.627-7.7a1.672,1.672,0,0,1-.128-.639,1.693,1.693,0,0,1,1.4-1.655,1.765,1.765,0,0,1,1.494.4c.963.829,18.42,16.1,16.374,34.854a37.715,37.715,0,0,1-6.577,17.971C46.8,31.8,37.547,35.981,25.285,35.981c-.559,0-1.122-.007-1.695-.024M43.82-11.5c.1.13,8.743,13.464-4.249,34.339a35.255,35.255,0,0,1-8.14,9.339C51.069,29.311,55.132,12.8,55.954,5.2,57.421-8.232,47.678-19.864,43.049-24.57c-1.454,3.113-4.8,6.235-6.14,7.406-.024.02-.051.044-.077.064C26.255-8.905,21.085-.616,21.465,7.539c.429,9.28,8.051,16.023,11.107,18.367,3.593-4.507,15.283-20.93,8.248-35.74a1.66,1.66,0,0,1,.714-2.172,1.757,1.757,0,0,1,.855-.223,1.747,1.747,0,0,1,1.432.729M-8.727,25.763a29.75,29.75,0,0,1-3.606-42.286c.139-.163.283-.327.426-.488a31.788,31.788,0,0,1,43.981-3.1q-1.385,1.08-2.647,2.183A28.063,28.063,0,0,0,22.26-22.14a24.372,24.372,0,0,1,3.314,4.224q.693,1.114,1.3,2.313a50.6,50.6,0,0,0-4.07,4.361,44.348,44.348,0,0,0-9.41-1.332V1.165h2.8a21.994,21.994,0,0,0-.57,3.323H13.407V18.222a46.245,46.245,0,0,0,4.94-.437A29.883,29.883,0,0,0,20.2,20.853a48.756,48.756,0,0,1-6.8.7v7.567c3.093-.57,6.021-2.662,8.451-6.063.767.937,1.544,1.794,2.3,2.567a21.977,21.977,0,0,1-1.885,2.172,28.212,28.212,0,0,0,2.771-1.3c.477.455.932.871,1.37,1.251l-.08.009V29.6a31.85,31.85,0,0,1-14.644,3.555A31.675,31.675,0,0,1-8.727,25.763M.714,21.836c2.576,4.121,5.811,6.646,9.257,7.276V21.545A47.513,47.513,0,0,1-.269,20.111c.312.592.639,1.171.983,1.723Zm.4,5.959A24.279,24.279,0,0,1-2.2,23.571a31.59,31.59,0,0,1-2.452-4.85,33.959,33.959,0,0,1-4.987-2.384,24.7,24.7,0,0,1-4.339-3.224,27.559,27.559,0,0,0,15.1,14.679ZM-2,16.132a42.515,42.515,0,0,0,11.975,2.09V4.488H-4.149A39.348,39.348,0,0,0-2,16.132Zm-5.866-2.642c.57.338,1.167.658,1.774.959A43.913,43.913,0,0,1-7.567,4.486h-7.782C-14.7,7.838-12.1,10.984-7.867,13.489Zm0-21.33h0c-4.233,2.5-6.832,5.656-7.477,9.012h7.775A44.056,44.056,0,0,1-6.1-8.795c-.608.3-1.2.616-1.772.952ZM-2-10.481A39.362,39.362,0,0,0-4.147,1.165H9.971V-12.573A42.626,42.626,0,0,0-2-10.485ZM-13.99-7.46a24.823,24.823,0,0,1,4.346-3.221,32.881,32.881,0,0,1,4.987-2.384,31.8,31.8,0,0,1,2.45-4.852,24.279,24.279,0,0,1,3.316-4.224A27.57,27.57,0,0,0-13.99-7.46M13.392-15.9a47.613,47.613,0,0,1,10.236,1.436q-.464-.895-.981-1.726c-2.576-4.123-5.815-6.644-9.257-7.273ZM.716-16.188c-.347.555-.672,1.127-.985,1.726A47.536,47.536,0,0,1,9.974-15.9v-7.565c-3.449.632-6.684,3.155-9.26,7.276Z" transform="translate(42.601 59.503)" fill="#fff"/>
    <path id="Caminho_39" data-name="Caminho 39" d="M0,68.566H125.259V-56.693H0Z" transform="translate(0 56.693)" fill="none"/>
  </g>
</svg>
